<?xml version="1.0" encoding="utf-8"?>
<svg id="master-artboard" viewBox="0 0 77.82942962646484 86.10684204101562" version="1.1" xmlns="http://www.w3.org/2000/svg" x="0px" y="0px" width="77.82942962646484px" height="86.10684204101562px" enable-background="new 0 0 1400 1400"><rect id="ee-background" x="0" y="0" width="77.82942962646484" height="86.10684204101562" style="fill: white; fill-opacity: 0; pointer-events: none;"/>


<defs><style id="ee-google-fonts">@import url(https://fonts.googleapis.com/css?family=Asap:400,400italic,700,700italic|BenchNine:300,400,700);</style></defs><g transform="matrix(-0.4403671324253082, 0, 0, 0.4403671324253082, 368.66180419921875, -90.52479362487793)"><g transform="matrix(1, 0, 0, 1, -131.47392203200025, -99.27622684049004)"><g transform="matrix(-1, 0, 0, 1, 1436.2082733542957, -69.55935772596831)">
			<g enable-background="new    ">
				<g><g transform="matrix(1, 0, 0, 1, 1.1368683772161603e-13, 2.842170943040401e-14)"><g transform="matrix(1, 0, 0, 1, 1.1368683772161603e-13, 2.842170943040401e-14)"><g transform="matrix(1, 0, 0, 1, 1.1368683772161603e-13, 2.842170943040401e-14)">
					<path d="M 588.7000122070312 465.5 L 588.4000244140625 538.9000244140625 L 553.7000122070312 518.9000244140625 L 553.9000244140625 536.7999877929688 L 535.2000122070312 508.20001220703125 L 498.79998779296875 487.20001220703125 L 499 413.70001220703125 Z" fill="#3AE0C1" style="fill: rgb(77, 25, 77);"/>
				</g><g transform="matrix(1, 0, 0, 1, 1.1368683772161603e-13, 2.842170943040401e-14)">
					<path d="M 588.7000122070312 465.5 L 593.5999755859375 462.6000061035156 L 593.4000244140625 536.0999755859375 L 588.4000244140625 538.9000244140625 Z" fill="#27C4A6" style="fill: rgb(92, 30, 92);"/>
				</g><g transform="matrix(1, 0, 0, 1, 1.1368683772161603e-13, 2.842170943040401e-14)">
					<path d="M 499 413.70001220703125 L 504 410.8999938964844 L 593.5999755859375 462.6000061035156 L 588.7000122070312 465.5 Z" fill="#27C4A6" style="fill: rgb(92, 30, 92);"/>
				</g></g></g></g>
				
				
			</g>
		</g><g transform="matrix(-1, 0, 0, 1, 1436.2082733542957, -69.55935772596831)">
				<path fill="#FFFFFF" d="M520.7,455.4c-4.2-2.4-7.6-0.5-7.6,4.4c0,4.8,3.4,10.7,7.6,13.1c4.2,2.4,7.6,0.5,7.6-4.3&#10;&#9;&#9;&#9;&#9;&#9;C528.3,463.7,524.9,457.8,520.7,455.4z"/>
			</g><path fill="#FFFFFF" d="M543.7,468.7c-4.2-2.4-7.6-0.5-7.6,4.4c0,4.8,3.4,10.7,7.6,13.1c4.2,2.4,7.6,0.5,7.6-4.3&#10;&#9;&#9;&#9;&#9;&#9;C551.4,477,548,471.1,543.7,468.7z" transform="matrix(-1, 0, 0, 1, 1436.2082733542957, -69.55935772596831)"/><path fill="#FFFFFF" d="M566.8,482c-4.2-2.4-7.6-0.5-7.6,4.4c0,4.8,3.4,10.7,7.6,13.1c4.2,2.4,7.6,0.5,7.6-4.4&#10;&#9;&#9;&#9;&#9;&#9;C574.4,490.3,571,484.4,566.8,482z" transform="matrix(-1, 0, 0, 1, 1436.2082733542957, -69.55935772596831)"/></g></g></svg>