<?xml version="1.0" encoding="utf-8"?>
<svg id="master-artboard" viewBox="0 0 70.64804077148438 72.39068603515625" version="1.1" xmlns="http://www.w3.org/2000/svg" x="0px" y="0px" width="70.64804077148438px" height="72.39068603515625px" enable-background="new 0 0 1400 1400"><rect id="ee-background" x="0" y="0" width="70.64804077148438" height="72.39068603515625" style="fill: white; fill-opacity: 0; pointer-events: none;"/>


<defs><style id="ee-google-fonts">@import url(https://fonts.googleapis.com/css?family=Asap:400,400italic,700,700italic|BenchNine:300,400,700);</style></defs><g transform="matrix(-0.2394673675298691, 0, 0, 0.2394673675298691, 96.73783126718615, 33.21949688156644)"><g transform="matrix(1, 0, 0, 1, -221.11597009175944, -344.1253713388051)">
		<g enable-background="new    ">
			<path fill="#F2449C" d="M517.6,286.1c-10.5-6.1-25-5.2-41,4c-31.8,18.4-57.5,62.8-57.4,99.4c0.1,18.1,6.5,30.9,16.8,36.9&#10;&#9;&#9;&#9;&#9;l26.4,15.3c-10.3-6-16.7-18.8-16.8-36.9c-0.1-36.5,25.6-81,57.4-99.4c16-9.2,30.5-10.1,41-4L517.6,286.1z" style="fill: rgb(92, 30, 92);"/>
			<g>
				<path fill="#F965A8" d="M503,305.4c31.8-18.4,57.6-3.6,57.7,32.9c0.1,36.5-25.6,81-57.4,99.4s-57.6,3.6-57.7-32.9&#10;&#9;&#9;&#9;&#9;&#9;S471.2,323.8,503,305.4z" style="fill: rgb(92, 30, 92);"/>
			</g>
		<path d="M 163.4654541015625 889.1732177734375" style="fill: rgb(92, 30, 92); fill-opacity: 1; stroke: rgb(0, 0, 0); stroke-opacity: 1; stroke-width: 0; paint-order: fill;"/></g>
		
	</g><path fill="#F965A8" d="M503,305.4c31.8-18.4,57.6-3.6,57.7,32.9c0.1,36.5-25.6,81-57.4,99.4s-57.6,3.6-57.7-32.9&#10;&#9;&#9;&#9;&#9;&#9;S471.2,323.8,503,305.4z" style="fill: rgb(255, 255, 252);" transform="matrix(0.6972345113754272, 0, 0, 0.6972345113754272, -65.81915381281283, -229.49332007010764)"/><path fill="#F965A8" d="M503,305.4c31.8-18.4,57.6-3.6,57.7,32.9c0.1,36.5-25.6,81-57.4,99.4s-57.6,3.6-57.7-32.9&#10;&#9;&#9;&#9;&#9;&#9;S471.2,323.8,503,305.4z" style="fill: rgb(92, 30, 92);" transform="matrix(0.5201282501220703, 0, 0, 0.5201282501220703, 26.360582744488056, -164.95013673529235)"/><path fill="#F965A8" d="M503,305.4c31.8-18.4,57.6-3.6,57.7,32.9c0.1,36.5-25.6,81-57.4,99.4s-57.6,3.6-57.7-32.9&#10;&#9;&#9;&#9;&#9;&#9;S471.2,323.8,503,305.4z" style="fill: rgb(255, 255, 252);" transform="matrix(0.33129194378852844, 0, 0, 0.33129194378852844, 124.1952151685241, -91.8808073383691)"/><g transform="matrix(-1.1301347017288208, 0, 0, 1.1301347017288208, 372.12451726383756, 121.71337309052592)"><path class="st7" d="M300.1,278.2c-9.6-1.4-12-4.8-12.8-17l-4.1-139.8c5,0,10.4,1.2,15.8,2.8c-16-16.8-18.4-32.7-19.2-32.6&#10;&#9;&#9;&#9;c-0.9,0.1-4.4,16.5-18,33.3c5.2-1.9,10.5-3.1,15.7-3.4l0.8,139.8c0,11.8-5.1,15.3-12.2,17.4l-0.5,36.4c8.4,0.5,14.8-2.1,17.8-9.9&#10;&#9;&#9;&#9;c4.6,7.3,10.7,10.2,18.3,9.1L300.1,278.2z" style="fill-rule: evenodd; clip-rule: evenodd; fill: rgb(44, 43, 78); opacity: 1;" transform="matrix(-0.06369869862644971, -0.42823264645422876, 0.42823264645422876, -0.06369869862644971, 47.522024587376386, 56.94444065794388)"/></g></g></svg>