<?xml version="1.0" encoding="utf-8"?>
<svg id="master-artboard" viewBox="0 0 182.93580627441406 190.0137176513672" version="1.1" xmlns="http://www.w3.org/2000/svg" x="0px" y="0px" width="182.93580627441406px" height="190.0137176513672px" enable-background="new 0 0 2340 1560"><rect id="ee-background" x="0" y="0" width="182.93580627441406" height="190.0137176513672" style="fill: white; fill-opacity: 0; pointer-events: none;"/><defs><linearGradient id="gradient-0" gradientUnits="userSpaceOnUse" x1="1216.7559814453125" y1="622.70703125" x2="1216.7559814453125" y2="763.4330444335938">
                <stop offset="0" style="stop-color: #666066"/>
                <stop offset="1" style="stop-color: #312f31"/>
              </linearGradient><linearGradient id="gradient-1" gradientUnits="userSpaceOnUse" x1="1206.049072265625" y1="764.5498657226562" x2="1206.049072265625" y2="888.0068969726562">
                <stop offset="0" style="stop-color: #666066"/>
                <stop offset="1" style="stop-color: #312f31"/>
              </linearGradient><linearGradient id="gradient-2" gradientUnits="userSpaceOnUse" x1="1108.9859924316406" y1="693.6279907226562" x2="1108.9859924316406" y2="834.35498046875">
                <stop offset="0" style="stop-color: #666066"/>
                <stop offset="1" style="stop-color: #312f31"/>
              </linearGradient><linearGradient id="gradient-3" gradientUnits="userSpaceOnUse" x1="1163.9697570800781" y1="516.5560913085938" x2="1163.9697570800781" y2="692.5120239257812">
                <stop offset="0" style="stop-color: #666066"/>
                <stop offset="1" style="stop-color: #312f31"/>
              </linearGradient><linearGradient id="gradient-4" gradientUnits="objectBoundingBox" x1="0.5" y1="0" x2="0.5" y2="1">
                <stop offset="0" style="stop-color: #376630"/>
                <stop offset="1" style="stop-color: #12210f"/>
              </linearGradient><linearGradient id="gradient-5" gradientUnits="objectBoundingBox" x1="0.5" y1="0" x2="0.5" y2="1">
                <stop offset="0" style="stop-color: #376630"/>
                <stop offset="1" style="stop-color: #12210f"/>
              </linearGradient><linearGradient id="gradient-6" gradientUnits="objectBoundingBox" x1="0.5" y1="0" x2="0.5" y2="1">
                <stop offset="0" style="stop-color: #376630"/>
                <stop offset="1" style="stop-color: #12210f"/>
              </linearGradient><linearGradient id="gradient-7" gradientUnits="objectBoundingBox" x1="0.5" y1="0" x2="0.5" y2="1" gradientTransform="matrix(0.9999764561653137, -0.012316926382482052, 0.007222950458526611, 1.8624624013900757, 0.000012069940567016602, 0.006158463191241026)">
                <stop offset="0" style="stop-color: #376630"/>
                <stop offset="1" style="stop-color: #12210f"/>
              </linearGradient><linearGradient id="gradient-8" gradientUnits="userSpaceOnUse" x1="1216.7559814453125" y1="622.70703125" x2="1216.7559814453125" y2="763.4330444335938" gradientTransform="matrix(0.6703234743808048, -0.7420697121077143, 1.4426650995053467, 1.3031854288694535, -497.2218167116959, 714.1220625269076)">
                <stop offset="0" style="stop-color: #662d23"/>
                <stop offset="1" style="stop-color: #1a0c09"/>
              </linearGradient><linearGradient id="gradient-9" gradientUnits="userSpaceOnUse" x1="1206.049072265625" y1="764.5498657226562" x2="1206.049072265625" y2="888.0068969726562" gradientTransform="matrix(-0.0032331279294058324, 0.9999945471721857, -2.6585205379981365, -0.008600190236605965, 3430.6510320628813, -218.11382665424435)">
                <stop offset="0" style="stop-color: #662d23"/>
                <stop offset="1" style="stop-color: #1a0c09"/>
              </linearGradient><linearGradient id="gradient-10" gradientUnits="userSpaceOnUse" x1="1108.9859924316406" y1="693.6279907226562" x2="1108.9859924316406" y2="834.35498046875">
                <stop offset="0" style="stop-color: #662d23"/>
                <stop offset="1" style="stop-color: #1a0c09"/>
              </linearGradient><linearGradient id="gradient-11" gradientUnits="userSpaceOnUse" x1="1163.9697570800781" y1="516.5560913085938" x2="1163.9697570800781" y2="692.5120239257812">
                <stop offset="0" style="stop-color: #662d23"/>
                <stop offset="1" style="stop-color: #1a0c09"/>
              </linearGradient><radialGradient id="gradient-12" gradientUnits="objectBoundingBox" cx="0.8738118410110474" cy="1.175431489944458" r="0.5" gradientTransform="matrix(0.0592056618040111, 3.1999913353439062, -1.71453146077355, 0.3586556055103003, 2.599857921012244, -2.9260521971405113)">
                <stop offset="0" style="stop-color: #006466"/>
                <stop offset="1" style="stop-color: #000000"/>
              </radialGradient><linearGradient id="gradient-13" gradientUnits="userSpaceOnUse" x1="499.3203125" y1="225" x2="499.3203125" y2="257.71875" gradientTransform="matrix(0.02150029053427107, 0.9997686093459491, -0.9789475756286669, 0.021052786631106338, 708.8480271727296, -278.9416702781713)">
                <stop offset="0" style="stop-color: #525d66"/>
                <stop offset="1" style="stop-color: #252a2e"/>
              </linearGradient><linearGradient id="gradient-14" gradientUnits="objectBoundingBox" x1="0.5" y1="0" x2="0.5" y2="1" gradientTransform="matrix(0.9997621421729352, 0.09345507192784841, -0.012053395293693883, 1.0192696042708753, 0.00011921201851242862, -0.04672753332431545)">
                <stop offset="0" style="stop-color: #006466"/>
                <stop offset="1" style="stop-color: #000000"/>
              </linearGradient><style id="ee-google-fonts">@import url(https://fonts.googleapis.com/css?family=Assistant:200,300,400,600,700,800|Asap:700,400,400italic,700italic);</style><linearGradient id="gradient-15" gradientUnits="objectBoundingBox" x1="0.5" y1="0" x2="0.5" y2="1" gradientTransform="matrix(0.07779531503437431, 1.644448256970023, -1.1549590298358892, 0.1486536339075638, 0.9351400413056787, -0.29703761159758446)">
                <stop offset="0" style="stop-color: #006466"/>
                <stop offset="1" style="stop-color: #000000"/>
              </linearGradient><linearGradient id="gradient-16" gradientUnits="objectBoundingBox" x1="0.5" y1="0" x2="0.5" y2="1" gradientTransform="matrix(-0.1461813460940407, 1.6317287456272793, -1.6017132720652163, -0.39039621187798373, 0.7878180156118996, -0.058503449552600915)">
                <stop offset="0" style="stop-color: #312244"/>
                <stop offset="1" style="stop-color: #000000"/>
              </linearGradient><linearGradient id="gradient-17" gradientUnits="objectBoundingBox" x1="0.5" y1="0" x2="0.5" y2="1" gradientTransform="matrix(-0.26822375965112566, 1.5890055042084268, -1.0594116769534594, -0.4865350867255552, 1.0998883222597438, -0.0057338112625175824)">
                <stop offset="0" style="stop-color: #4d194d"/>
                <stop offset="1" style="stop-color: #000000"/>
              </linearGradient><linearGradient id="gradient-18" gradientUnits="objectBoundingBox" x1="0.5" y1="0" x2="0.5" y2="1" gradientTransform="matrix(-0.26822375965112566, 1.5890055042084268, -1.0594116769534594, -0.4865350867255552, 1.0998883222597438, -0.0057338112625175824)">
                <stop offset="0" style="stop-color: #4d194d"/>
                <stop offset="1" style="stop-color: #000000"/>
              </linearGradient><linearGradient id="gradient-20" gradientUnits="objectBoundingBox" x1="0.5" y1="0" x2="0.5" y2="1">
                <stop offset="0" style="stop-color: #312244"/>
                <stop offset="1" style="stop-color: #000000"/>
              </linearGradient><linearGradient id="gradient-21" gradientUnits="objectBoundingBox" x1="0.5" y1="0" x2="0.5" y2="1">
                <stop offset="0" style="stop-color: #312244"/>
                <stop offset="1" style="stop-color: #000000"/>
              </linearGradient><linearGradient id="gradient-22" gradientUnits="objectBoundingBox" x1="0.5" y1="0" x2="0.5" y2="1">
                <stop offset="0" style="stop-color: #312244"/>
                <stop offset="1" style="stop-color: #000000"/>
              </linearGradient><linearGradient id="gradient-23" gradientUnits="objectBoundingBox" x1="0.5" y1="0" x2="0.5" y2="1">
                <stop offset="0" style="stop-color: #312244"/>
                <stop offset="1" style="stop-color: #000000"/>
              </linearGradient></defs>
<metadata><!--?xpacket begin="﻿" id="W5M0MpCehiHzreSzNTczkc9d"?-->

                                                                                                    
                                                                                                    
                                                                                                    
                                                                                                    
                                                                                                    
                                                                                                    
                                                                                                    
                                                                                                    
                                                                                                    
                                                                                                    
                                                                                                    
                                                                                                    
                                                                                                    
                                                                                                    
                                                                                                    
                                                                                                    
                                                                                                    
                                                                                                    
                                                                                                    
                                                                                                    
                           
<!--?xpacket end="w"?-->
	</metadata>


<g transform="matrix(0.1397024244070053, -0.2145652174949646, 0.2145652174949646, 0.1397024244070053, -223.7646896875401, 233.05306634467854)">
		<linearGradient id="SVGID_1_" gradientUnits="userSpaceOnUse" x1="1216.7559" y1="552.3892" x2="1216.7559" y2="862.516">
			<stop offset="0" style="stop-color:#F1910D"/>
			<stop offset="1" style="stop-color:#D41055"/>
		</linearGradient>
		<path fill="url(#SVGID_1_)" d="M1325.063,745.598c4.263,0,7.753-3.489,7.753-7.754V630.46c0-4.265-3.49-7.753-7.753-7.753h-3.446&#10;&#9;&#9;&#9;c-4.265,0-7.753,3.488-7.753,7.753v88.433c0,4.264-3.49,7.753-7.753,7.753h-144.732c-4.265,0-9.896-2.754-12.516-6.118&#10;&#9;&#9;&#9;c0,0-9.124-11.72-20.853-11.72c-15.061,0-27.314,12.253-27.314,27.313c0,15.06,12.254,27.312,27.314,27.312&#10;&#9;&#9;&#9;c11.729,0,20.852-11.718,20.852-11.718c2.62-3.365,8.252-6.117,12.516-6.117H1325.063z M1128.01,744.481&#10;&#9;&#9;&#9;c-4.611,0-8.362-3.75-8.362-8.359c0-4.61,3.751-8.361,8.362-8.361c4.609,0,8.359,3.751,8.359,8.361&#10;&#9;&#9;&#9;C1136.369,740.731,1132.619,744.481,1128.01,744.481z" style="fill: url('#gradient-17');"/>
	</g><linearGradient id="SVGID_2_" gradientUnits="userSpaceOnUse" x1="1206.0488" y1="552.3882" x2="1206.0488" y2="862.5184">
			<stop offset="0" style="stop-color:#F1910D"/>
			<stop offset="1" style="stop-color:#D41055"/>
		</linearGradient><path fill="url(#SVGID_2_)" d="M1321.616,764.55c-4.265,0-7.753,3.488-7.753,7.753v5.284c0,4.265-3.021,9.499-6.715,11.63&#10;&#9;&#9;&#9;l-130.434,75.306c-3.693,2.132-9.736,2.132-13.43,0l-43.607-25.176c-3.693-2.132-10.203-3.877-14.467-3.877h-22.398&#10;&#9;&#9;&#9;c-4.264,0-4.731,1.745-1.039,3.877l81.512,47.061c3.693,2.132,9.736,2.132,13.43,0l149.386-86.249&#10;&#9;&#9;&#9;c3.692-2.132,6.715-7.365,6.715-11.629v-16.227c0-4.265-3.49-7.753-7.753-7.753H1321.616z" transform="matrix(0.1397024244070053, -0.2145652174949646, 0.2145652174949646, 0.1397024244070053, -223.7646896875401, 233.05306634467854)" style="fill: rgb(0, 100, 102);"/><linearGradient id="SVGID_3_" gradientUnits="userSpaceOnUse" x1="1108.9849" y1="552.3867" x2="1108.9849" y2="862.5171">
			<stop offset="0" style="stop-color:#F1910D"/>
			<stop offset="1" style="stop-color:#D41055"/>
		</linearGradient><path fill="url(#SVGID_3_)" d="M1150.104,816.519c4.264,0,9.896,2.753,12.516,6.118c0,0,9.123,11.718,20.853,11.718&#10;&#9;&#9;&#9;c15.061,0,27.313-12.252,27.313-27.312c0-15.061-12.252-27.313-27.313-27.313c-11.73,0-20.853,11.719-20.853,11.719&#10;&#9;&#9;&#9;c-2.619,3.364-8.252,6.117-12.516,6.117h-95.039c-4.264,0-10.773-1.744-14.467-3.876l-7.746-4.473&#10;&#9;&#9;&#9;c-3.693-2.132-6.715-7.365-6.715-11.63v-76.206c0-4.264-3.488-7.753-7.753-7.753h-3.446c-4.264,0-7.752,3.489-7.752,7.753v87.149&#10;&#9;&#9;&#9;c0,4.264,3.021,9.497,6.713,11.629l21.621,12.482c3.693,2.132,10.203,3.877,14.469,3.877H1150.104z M1183.472,798.683&#10;&#9;&#9;&#9;c4.61,0,8.36,3.75,8.36,8.36c0,4.609-3.75,8.359-8.36,8.359c-4.609,0-8.36-3.75-8.36-8.359&#10;&#9;&#9;&#9;C1175.111,802.433,1178.862,798.683,1183.472,798.683z" transform="matrix(0.1397024244070053, -0.2145652174949646, 0.2145652174949646, 0.1397024244070053, -223.7646896875401, 233.05306634467854)" style="fill: rgb(0, 100, 102);"/><linearGradient id="SVGID_4_" gradientUnits="userSpaceOnUse" x1="1163.9692" y1="552.3887" x2="1163.9692" y2="862.5182">
			<stop offset="0" style="stop-color:#F1910D"/>
			<stop offset="1" style="stop-color:#D41055"/>
		</linearGradient><path fill="url(#SVGID_4_)" d="M1178.623,674.676c4.264,0,9.896,2.754,12.516,6.118c0,0,9.123,11.718,20.853,11.718&#10;&#9;&#9;&#9;c15.06,0,27.313-12.252,27.313-27.312c0-15.061-12.253-27.313-27.313-27.313c-11.73,0-20.854,11.719-20.854,11.719&#10;&#9;&#9;&#9;c-2.619,3.365-8.251,6.119-12.515,6.119h-144.732c-4.266,0-7.754-3.489-7.754-7.754v-20.996c0-4.264,3.021-9.498,6.715-11.629&#10;&#9;&#9;&#9;l130.434-75.307c3.693-2.133,9.736-2.133,13.43,0l70.819,40.887c3.692,2.133,3.226,3.877-1.04,3.877h-60.963&#10;&#9;&#9;&#9;c-4.264,0-9.896-2.753-12.516-6.117c0,0-9.123-11.719-20.854-11.719c-15.06,0-27.313,12.252-27.313,27.313&#10;&#9;&#9;&#9;s12.253,27.313,27.313,27.313c11.73,0,20.854-11.719,20.854-11.719c2.62-3.365,8.252-6.118,12.516-6.118h131.693&#10;&#9;&#9;&#9;c4.264,0,4.731-1.744,1.038-3.876l-141.548-81.725c-3.693-2.132-9.736-2.132-13.43,0L1013.9,604.404&#10;&#9;&#9;&#9;c-3.693,2.132-6.715,7.365-6.715,11.63v50.89c0,4.265,3.488,7.753,7.752,7.753H1178.623z M1211.991,656.84&#10;&#9;&#9;&#9;c4.61,0,8.36,3.75,8.36,8.36c0,4.609-3.75,8.359-8.36,8.359s-8.36-3.75-8.36-8.359&#10;&#9;&#9;&#9;C1203.631,660.59,1207.381,656.84,1211.991,656.84z M1152.162,602.64c-4.609,0-8.359-3.751-8.359-8.36&#10;&#9;&#9;&#9;c0-4.61,3.75-8.36,8.359-8.36c4.611,0,8.361,3.75,8.361,8.36C1160.523,598.889,1156.773,602.64,1152.162,602.64z" transform="matrix(0.1397024244070053, -0.2145652174949646, 0.2145652174949646, 0.1397024244070053, -223.7646896875401, 233.05306634467854)" style="fill: rgb(0, 100, 102);"/>
<path d="M 446.0561828613281 233.521728515625 L 456.2261657714844 233.521728515625 L 456.2261657714844 236.9817352294922 L 450.1861572265625 236.9817352294922 L 450.1861572265625 239.9517364501953 L 455.3661804199219 239.9517364501953 L 455.3661804199219 243.41172790527344 L 450.1861572265625 243.41172790527344 L 450.1861572265625 249.12173461914062 L 446.0561828613281 249.12173461914062 L 446.0561828613281 233.521728515625 ZM 458.9164733886719 233.521728515625 L 463.04644775390625 233.521728515625 L 463.04644775390625 245.66172790527344 L 468.94647216796875 245.66172790527344 L 468.94647216796875 249.12173461914062 L 458.9164733886719 249.12173461914062 L 458.9164733886719 233.521728515625 ZM 478.7828369140625 245.81173706054688 L 474.412841796875 245.81173706054688 L 473.6428527832031 249.12173461914062 L 469.4228515625 249.12173461914062 L 474.1728515625 233.521728515625 L 479.162841796875 233.521728515625 L 483.9228515625 249.12173461914062 L 479.5528564453125 249.12173461914062 L 478.7828369140625 245.81173706054688 M 478.0428466796875 242.62173461914062 L 477.7728271484375 241.54173278808594 C 477.566162109375 240.72174072265625 477.3594970703125 239.8250732421875 477.15283203125 238.8517303466797 L 476.6228332519531 236.59173583984375 L 476.5228271484375 236.59173583984375 L 476.3828430175781 237.26173400878906 C 476.0295104980469 239.021728515625 475.7095031738281 240.44839477539062 475.4228515625 241.54173278808594 L 475.162841796875 242.62173461914062 L 478.0428466796875 242.62173461914062 ZM 485.4048156738281 233.521728515625 L 489.62481689453125 233.521728515625 L 493.0848083496094 240.4817352294922 L 494.5747985839844 243.9817352294922 L 494.664794921875 243.9817352294922 C 494.6514587402344 243.8083953857422 494.6114807128906 243.4884033203125 494.5447998046875 243.021728515625 C 494.271484375 240.8150634765625 494.1347961425781 239.1517333984375 494.1347961425781 238.03173828125 L 494.1347961425781 233.521728515625 L 498.0747985839844 233.521728515625 L 498.0747985839844 249.12173461914062 L 493.85479736328125 249.12173461914062 L 490.3948059082031 242.14173889160156 L 488.9048156738281 238.66172790527344 L 488.8148193359375 238.66172790527344 L 488.9548034667969 239.93173217773438 C 489.2081298828125 241.945068359375 489.3348083496094 243.50506591796875 489.3348083496094 244.6117401123047 L 489.3348083496094 249.12173461914062 L 485.4048156738281 249.12173461914062 L 485.4048156738281 233.521728515625 ZM 508.29815673828125 249.41172790527344 C 506.93817138671875 249.41172790527344 505.6914978027344 249.1117401123047 504.55816650390625 248.51173400878906 C 503.4314880371094 247.91172790527344 502.531494140625 247.01173400878906 501.858154296875 245.81173706054688 C 501.1914978027344 244.6117401123047 500.858154296875 243.1550750732422 500.858154296875 241.44174194335938 C 500.858154296875 239.76173400878906 501.204833984375 238.30172729492188 501.8981628417969 237.06173706054688 C 502.59149169921875 235.8217315673828 503.5115051269531 234.87506103515625 504.65814208984375 234.22174072265625 C 505.8048095703125 233.56173706054688 507.04815673828125 233.2317352294922 508.3881530761719 233.2317352294922 C 509.34814453125 233.2317352294922 510.24481201171875 233.42506408691406 511.0781555175781 233.81173706054688 C 511.9114990234375 234.19174194335938 512.6314697265625 234.6884002685547 513.2381591796875 235.30172729492188 L 511.0781555175781 237.94174194335938 C 510.64483642578125 237.55506896972656 510.2281494140625 237.26507568359375 509.8281555175781 237.0717315673828 C 509.42816162109375 236.87840270996094 508.9814758300781 236.78173828125 508.4881591796875 236.78173828125 C 507.8815002441406 236.78173828125 507.3181457519531 236.96839904785156 506.79815673828125 237.34173583984375 C 506.2781677246094 237.70840454101562 505.8614807128906 238.2317352294922 505.54815673828125 238.91172790527344 C 505.2348327636719 239.59173583984375 505.0781555175781 240.38839721679688 505.0781555175781 241.30172729492188 C 505.0781555175781 242.74172973632812 505.3815002441406 243.8617401123047 505.9881591796875 244.66172790527344 C 506.5948181152344 245.46173095703125 507.4114990234375 245.8617401123047 508.43817138671875 245.8617401123047 C 509.4914855957031 245.8617401123047 510.434814453125 245.41172790527344 511.2681579589844 244.51173400878906 L 513.4281616210938 247.1017303466797 C 512.7748413085938 247.87506103515625 512.011474609375 248.4517364501953 511.1381530761719 248.8317413330078 C 510.26483154296875 249.21839904785156 509.3181457519531 249.41172790527344 508.29815673828125 249.41172790527344 ZM 515.5880737304688 233.521728515625 L 525.6680908203125 233.521728515625 L 525.6680908203125 236.9817352294922 L 519.7180786132812 236.9817352294922 L 519.7180786132812 239.42173767089844 L 524.798095703125 239.42173767089844 L 524.798095703125 242.88172912597656 L 519.7180786132812 242.88172912597656 L 519.7180786132812 245.66172790527344 L 525.9080810546875 245.66172790527344 L 525.9080810546875 249.12173461914062 L 515.5880737304688 249.12173461914062 L 515.5880737304688 233.521728515625 ZM 537.3282470703125 249.12173461914062 L 534.6382446289062 243.89173889160156 L 533.0582275390625 243.89173889160156 L 533.0582275390625 249.12173461914062 L 528.92822265625 249.12173461914062 L 528.92822265625 233.521728515625 L 534.8282470703125 233.521728515625 C 536.7015991210938 233.521728515625 538.2115478515625 233.9084014892578 539.3582153320312 234.68173217773438 C 540.4982299804688 235.46173095703125 541.0682373046875 236.75506591796875 541.0682373046875 238.56173706054688 C 541.0682373046875 239.63507080078125 540.8449096679688 240.54840087890625 540.3982543945312 241.30172729492188 C 539.9515991210938 242.04840087890625 539.3348999023438 242.63839721679688 538.5482177734375 243.0717315673828 L 541.938232421875 249.12173461914062 L 537.3282470703125 249.12173461914062 M 533.0582275390625 240.62173461914062 L 534.5382690429688 240.62173461914062 C 535.3582153320312 240.62173461914062 535.978271484375 240.44839477539062 536.3982543945312 240.1017303466797 C 536.8248901367188 239.74839782714844 537.0382690429688 239.2350616455078 537.0382690429688 238.56173706054688 C 537.0382690429688 237.9084014892578 536.8348999023438 237.44839477539062 536.42822265625 237.18173217773438 C 536.0216064453125 236.91506958007812 535.3916015625 236.78173828125 534.5382690429688 236.78173828125 L 533.0582275390625 236.78173828125 L 533.0582275390625 240.62173461914062 Z" transform="matrix(0.9311953783035278, 0, 0, 0.9311953783035278, -371.134033203125, -85.6747055053711)" style="fill: url('#gradient-14'); white-space: pre; color: rgb(0, 100, 102); fill-opacity: 1;"/><path d="M 879.5076293945312 788.537841796875 L 879.5076293945312 774.037841796875 L 874.8976440429688 774.037841796875 C 874.57763671875 774.037841796875 874.4176025390625 773.7978515625 874.4176025390625 773.3178100585938 L 874.4176025390625 772.9378051757812 C 874.4176025390625 772.4578247070312 874.57763671875 772.2178344726562 874.8976440429688 772.2178344726562 L 886.1575927734375 772.2178344726562 C 886.4776000976562 772.2178344726562 886.6376342773438 772.4578247070312 886.6376342773438 772.9378051757812 L 886.6376342773438 773.3178100585938 C 886.6376342773438 773.7978515625 886.4776000976562 774.037841796875 886.1575927734375 774.037841796875 L 881.6176147460938 774.037841796875 L 881.6176147460938 788.537841796875 C 881.6176147460938 788.8911743164062 881.297607421875 789.0678100585938 880.6575927734375 789.0678100585938 L 880.4676513671875 789.0678100585938 C 879.82763671875 789.0678100585938 879.5076293945312 788.8911743164062 879.5076293945312 788.537841796875 ZM 889.3189697265625 788.537841796875 L 889.3189697265625 771.497802734375 C 889.3189697265625 771.1444702148438 889.6389770507812 770.9678344726562 890.2789306640625 770.9678344726562 L 890.3689575195312 770.9678344726562 C 891.0089721679688 770.9678344726562 891.3289184570312 771.1444702148438 891.3289184570312 771.497802734375 L 891.3289184570312 777.9778442382812 C 892.4356079101562 776.8711547851562 893.6622924804688 776.3178100585938 895.0089721679688 776.3178100585938 C 895.9155883789062 776.3178100585938 896.7389526367188 776.5511474609375 897.4789428710938 777.017822265625 C 897.8789672851562 777.2911376953125 898.2022705078125 777.6978149414062 898.448974609375 778.23779296875 C 898.6956176757812 778.7844848632812 898.8189697265625 779.441162109375 898.8189697265625 780.2078247070312 L 898.8189697265625 788.537841796875 C 898.8189697265625 788.8911743164062 898.4989624023438 789.0678100585938 897.8589477539062 789.0678100585938 L 897.7689208984375 789.0678100585938 C 897.1289672851562 789.0678100585938 896.8089599609375 788.8911743164062 896.8089599609375 788.537841796875 L 896.8089599609375 780.3978271484375 C 896.8089599609375 779.6777954101562 896.5989379882812 779.1111450195312 896.178955078125 778.6978149414062 C 895.765625 778.2844848632812 895.2255859375 778.0778198242188 894.5589599609375 778.0778198242188 C 893.89892578125 778.0778198242188 893.3156127929688 778.2178344726562 892.8089599609375 778.497802734375 C 892.3023071289062 778.77783203125 891.928955078125 779.0511474609375 891.68896484375 779.3178100585938 L 891.3289184570312 779.7578125 L 891.3289184570312 788.537841796875 C 891.3289184570312 788.8911743164062 891.0089721679688 789.0678100585938 890.3689575195312 789.0678100585938 L 890.2789306640625 789.0678100585938 C 889.6389770507812 789.0678100585938 889.3189697265625 788.8911743164062 889.3189697265625 788.537841796875 ZM 907.8640747070312 789.1578369140625 C 905.8640747070312 789.1578369140625 904.384033203125 788.6378173828125 903.424072265625 787.5978393554688 C 902.4640502929688 786.5578002929688 901.9840698242188 784.9711303710938 901.9840698242188 782.8378295898438 C 901.9840698242188 780.7044677734375 902.4573974609375 779.08447265625 903.404052734375 777.9778442382812 C 904.3440551757812 776.8711547851562 905.6873779296875 776.3178100585938 907.43408203125 776.3178100585938 C 910.827392578125 776.3178100585938 912.5240478515625 778.4078369140625 912.5240478515625 782.5878295898438 C 912.5240478515625 782.7278442382812 912.4273681640625 782.9277954101562 912.2340698242188 783.1878051757812 C 912.0407104492188 783.441162109375 911.8707275390625 783.5678100585938 911.7240600585938 783.5678100585938 L 904.14404296875 783.5678100585938 C 904.2373657226562 784.8944702148438 904.5807495117188 785.8711547851562 905.174072265625 786.497802734375 C 905.7673950195312 787.12451171875 906.6574096679688 787.4378051757812 907.8440551757812 787.4378051757812 C 908.9307250976562 787.4378051757812 909.9307250976562 787.18115234375 910.8440551757812 786.6678466796875 C 911.14404296875 786.5078125 911.3107299804688 786.4277954101562 911.3440551757812 786.4277954101562 C 911.5040893554688 786.4277954101562 911.68408203125 786.5878295898438 911.884033203125 786.9078369140625 C 912.0840454101562 787.2278442382812 912.18408203125 787.4678344726562 912.18408203125 787.6278076171875 C 912.18408203125 787.9478149414062 911.7473754882812 788.2844848632812 910.8740844726562 788.6378173828125 C 910.000732421875 788.9844970703125 908.9973754882812 789.1578369140625 907.8640747070312 789.1578369140625 M 910.384033203125 781.8378295898438 C 910.384033203125 779.3111572265625 909.424072265625 778.0478515625 907.5040893554688 778.0478515625 C 905.4373779296875 778.0478515625 904.3173828125 779.3111572265625 904.14404296875 781.8378295898438 L 910.384033203125 781.8378295898438 ZM 921.6834106445312 788.2978515625 L 921.6834106445312 772.9378051757812 C 921.6834106445312 772.4578247070312 921.9234008789062 772.2178344726562 922.4033813476562 772.2178344726562 L 927.25341796875 772.2178344726562 C 929.493408203125 772.2178344726562 931.2867431640625 772.8844604492188 932.6334228515625 774.2178344726562 C 933.9867553710938 775.5578002929688 934.6633911132812 777.6944580078125 934.6633911132812 780.6278076171875 C 934.6633911132812 783.5678100585938 933.9867553710938 785.701171875 932.6334228515625 787.02783203125 C 931.2867431640625 788.3544921875 929.493408203125 789.017822265625 927.25341796875 789.017822265625 L 922.4033813476562 789.017822265625 C 921.9234008789062 789.017822265625 921.6834106445312 788.77783203125 921.6834106445312 788.2978515625 M 923.7933959960938 787.1978149414062 L 927.0833740234375 787.1978149414062 C 928.6967163085938 787.1978149414062 930.0000610351562 786.6678466796875 930.993408203125 785.6078491210938 C 931.9867553710938 784.5545043945312 932.4833984375 782.8944702148438 932.4833984375 780.6278076171875 C 932.4833984375 778.3677978515625 931.9867553710938 776.7044677734375 930.993408203125 775.6378173828125 C 930.0000610351562 774.5711669921875 928.6967163085938 774.037841796875 927.0833740234375 774.037841796875 L 923.7933959960938 774.037841796875 L 923.7933959960938 787.1978149414062 ZM 943.2274780273438 789.1578369140625 C 941.2274780273438 789.1578369140625 939.7474365234375 788.6378173828125 938.7874755859375 787.5978393554688 C 937.8274536132812 786.5578002929688 937.3474731445312 784.9711303710938 937.3474731445312 782.8378295898438 C 937.3474731445312 780.7044677734375 937.82080078125 779.08447265625 938.7674560546875 777.9778442382812 C 939.7074584960938 776.8711547851562 941.05078125 776.3178100585938 942.7974853515625 776.3178100585938 C 946.1907958984375 776.3178100585938 947.887451171875 778.4078369140625 947.887451171875 782.5878295898438 C 947.887451171875 782.7278442382812 947.790771484375 782.9277954101562 947.5974731445312 783.1878051757812 C 947.4041137695312 783.441162109375 947.234130859375 783.5678100585938 947.0874633789062 783.5678100585938 L 939.5074462890625 783.5678100585938 C 939.6007690429688 784.8944702148438 939.9441528320312 785.8711547851562 940.5374755859375 786.497802734375 C 941.1307983398438 787.12451171875 942.0208129882812 787.4378051757812 943.2074584960938 787.4378051757812 C 944.2941284179688 787.4378051757812 945.2941284179688 787.18115234375 946.2074584960938 786.6678466796875 C 946.5074462890625 786.5078125 946.6741333007812 786.4277954101562 946.7074584960938 786.4277954101562 C 946.8674926757812 786.4277954101562 947.0474853515625 786.5878295898438 947.2474365234375 786.9078369140625 C 947.4474487304688 787.2278442382812 947.5474853515625 787.4678344726562 947.5474853515625 787.6278076171875 C 947.5474853515625 787.9478149414062 947.1107788085938 788.2844848632812 946.2374877929688 788.6378173828125 C 945.3641357421875 788.9844970703125 944.3607788085938 789.1578369140625 943.2274780273438 789.1578369140625 M 945.7474365234375 781.8378295898438 C 945.7474365234375 779.3111572265625 944.7874755859375 778.0478515625 942.8674926757812 778.0478515625 C 940.80078125 778.0478515625 939.6807861328125 779.3111572265625 939.5074462890625 781.8378295898438 L 945.7474365234375 781.8378295898438 ZM 949.798828125 787.7178344726562 C 949.798828125 787.5578002929688 949.8988037109375 787.3178100585938 950.0988159179688 786.997802734375 C 950.298828125 786.6777954101562 950.4788208007812 786.517822265625 950.6387939453125 786.517822265625 C 950.6521606445312 786.517822265625 950.77880859375 786.594482421875 951.018798828125 786.747802734375 C 951.2587890625 786.9011840820312 951.60546875 787.0545043945312 952.0587768554688 787.2078247070312 C 952.5054931640625 787.3611450195312 953.0454711914062 787.4378051757812 953.6787719726562 787.4378051757812 C 954.3054809570312 787.4378051757812 954.825439453125 787.2578125 955.2388305664062 786.8978271484375 C 955.6454467773438 786.537841796875 955.8488159179688 786.0478515625 955.8488159179688 785.4277954101562 C 955.8488159179688 784.8145141601562 955.6688232421875 784.33447265625 955.3087768554688 783.98779296875 C 954.9487915039062 783.6478271484375 954.2321166992188 783.324462890625 953.1588134765625 783.017822265625 C 952.08544921875 782.711181640625 951.3087768554688 782.324462890625 950.8287963867188 781.8578491210938 C 950.3488159179688 781.3844604492188 950.1088256835938 780.6678466796875 950.1088256835938 779.7078247070312 C 950.1088256835938 778.747802734375 950.4788208007812 777.9444580078125 951.2188110351562 777.2978515625 C 951.9521484375 776.6444702148438 952.912109375 776.3178100585938 954.0988159179688 776.3178100585938 C 954.912109375 776.3178100585938 955.6387939453125 776.4244995117188 956.27880859375 776.6378173828125 C 956.9188232421875 776.844482421875 957.2388305664062 777.074462890625 957.2388305664062 777.3278198242188 C 957.2388305664062 777.5344848632812 957.1454467773438 777.8045043945312 956.9588012695312 778.1378173828125 C 956.77880859375 778.4644775390625 956.615478515625 778.6278076171875 956.4688110351562 778.6278076171875 C 956.4554443359375 778.6278076171875 956.3521118164062 778.5778198242188 956.1588134765625 778.4778442382812 C 955.6121215820312 778.191162109375 954.998779296875 778.0478515625 954.3187866210938 778.0478515625 C 953.6387939453125 778.0478515625 953.1121215820312 778.1878051757812 952.7388305664062 778.4678344726562 C 952.365478515625 778.747802734375 952.1787719726562 779.1111450195312 952.1787719726562 779.5578002929688 C 952.1787719726562 780.0111694335938 952.3187866210938 780.364501953125 952.5988159179688 780.6177978515625 C 952.8787841796875 780.8711547851562 953.3521118164062 781.1044921875 954.018798828125 781.3178100585938 C 955.5254516601562 781.77783203125 956.5454711914062 782.2844848632812 957.0787963867188 782.8378295898438 C 957.6187744140625 783.3911743164062 957.8887939453125 784.2244873046875 957.8887939453125 785.3378295898438 C 957.8887939453125 786.4445190429688 957.4921264648438 787.3578491210938 956.6987915039062 788.0778198242188 C 955.9054565429688 788.7978515625 954.9588012695312 789.1578369140625 953.8588256835938 789.1578369140625 C 952.7521362304688 789.1578369140625 951.798828125 788.9945068359375 950.998779296875 788.6678466796875 C 950.1987915039062 788.3411254882812 949.798828125 788.0244750976562 949.798828125 787.7178344726562 ZM 961.4373168945312 785.8478393554688 L 961.4373168945312 778.1978149414062 L 960.2373046875 778.1978149414062 C 959.9172973632812 778.1978149414062 959.75732421875 777.9578247070312 959.75732421875 777.4778442382812 L 959.75732421875 777.1878051757812 C 959.75732421875 776.7078247070312 959.9172973632812 776.4678344726562 960.2373046875 776.4678344726562 L 961.4373168945312 776.4678344726562 L 961.727294921875 773.9478149414062 C 961.7539672851562 773.594482421875 962.00732421875 773.4178466796875 962.4873046875 773.4178466796875 L 962.727294921875 773.4178466796875 C 963.2073364257812 773.4178466796875 963.4473266601562 773.594482421875 963.4473266601562 773.9478149414062 L 963.4473266601562 776.4678344726562 L 965.46728515625 776.4678344726562 C 965.7872924804688 776.4678344726562 965.9473266601562 776.7078247070312 965.9473266601562 777.1878051757812 L 965.9473266601562 777.4778442382812 C 965.9473266601562 777.9578247070312 965.7872924804688 778.1978149414062 965.46728515625 778.1978149414062 L 963.4473266601562 778.1978149414062 L 963.4473266601562 785.6578369140625 C 963.4473266601562 786.844482421875 963.880615234375 787.4378051757812 964.747314453125 787.4378051757812 C 965.0206298828125 787.4378051757812 965.2539672851562 787.4178466796875 965.4473266601562 787.3778076171875 C 965.6339721679688 787.3378295898438 965.7439575195312 787.3178100585938 965.7772827148438 787.3178100585938 C 965.9239501953125 787.3178100585938 966.0440063476562 787.4644775390625 966.1373291015625 787.7578125 C 966.2373046875 788.0511474609375 966.2872924804688 788.27783203125 966.2872924804688 788.4378051757812 C 966.2872924804688 788.9178466796875 965.7006225585938 789.1578369140625 964.5272827148438 789.1578369140625 C 963.727294921875 789.1578369140625 963.0139770507812 788.9144897460938 962.3873291015625 788.4277954101562 C 961.7539672851562 787.941162109375 961.4373168945312 787.0811767578125 961.4373168945312 785.8478393554688 ZM 970.1223754882812 773.4378051757812 C 969.4823608398438 773.4378051757812 969.1624145507812 773.2644653320312 969.1624145507812 772.9178466796875 L 969.1624145507812 771.497802734375 C 969.1624145507812 771.1444702148438 969.4823608398438 770.9678344726562 970.1223754882812 770.9678344726562 L 970.4124145507812 770.9678344726562 C 971.0523681640625 770.9678344726562 971.3723754882812 771.1444702148438 971.3723754882812 771.497802734375 L 971.3723754882812 772.9178466796875 C 971.3723754882812 773.2644653320312 971.0523681640625 773.4378051757812 970.4124145507812 773.4378051757812 L 970.1223754882812 773.4378051757812 M 969.2523803710938 788.537841796875 L 969.2523803710938 776.9478149414062 C 969.2523803710938 776.594482421875 969.5723876953125 776.4178466796875 970.21240234375 776.4178466796875 L 970.3123779296875 776.4178466796875 C 970.952392578125 776.4178466796875 971.2723999023438 776.594482421875 971.2723999023438 776.9478149414062 L 971.2723999023438 788.537841796875 C 971.2723999023438 788.8911743164062 970.952392578125 789.0678100585938 970.3123779296875 789.0678100585938 L 970.21240234375 789.0678100585938 C 969.5723876953125 789.0678100585938 969.2523803710938 788.8911743164062 969.2523803710938 788.537841796875 ZM 975.4901123046875 788.537841796875 L 975.4901123046875 780.1177978515625 C 975.4901123046875 779.1378173828125 975.4501342773438 778.441162109375 975.3701171875 778.02783203125 C 975.263427734375 777.4478149414062 975.2101440429688 777.1344604492188 975.2101440429688 777.0878295898438 C 975.2101440429688 776.8944702148438 975.360107421875 776.7545166015625 975.6600952148438 776.6678466796875 C 975.966796875 776.5811767578125 976.2034301757812 776.537841796875 976.3701171875 776.537841796875 C 976.5368041992188 776.537841796875 976.6534423828125 776.5545043945312 976.7200927734375 776.5878295898438 C 976.7800903320312 776.6211547851562 976.840087890625 776.671142578125 976.9000854492188 776.73779296875 C 976.9534301757812 776.8111572265625 976.9967651367188 776.8844604492188 977.0300903320312 776.9578247070312 C 977.0634765625 777.0311279296875 977.0968017578125 777.1278076171875 977.130126953125 777.247802734375 C 977.1567993164062 777.3677978515625 977.1834716796875 777.4644775390625 977.2101440429688 777.537841796875 C 977.2367553710938 777.6044921875 977.2601318359375 777.7078247070312 977.2800903320312 777.8478393554688 C 977.3067626953125 777.9811401367188 977.3267822265625 778.0711669921875 977.340087890625 778.1177978515625 C 978.4134521484375 776.9178466796875 979.610107421875 776.3178100585938 980.9301147460938 776.3178100585938 C 982.2501220703125 776.3178100585938 983.2567749023438 776.6644897460938 983.9501342773438 777.3578491210938 C 984.6500854492188 778.0444946289062 985.0001220703125 778.9945068359375 985.0001220703125 780.2078247070312 L 985.0001220703125 788.537841796875 C 985.0001220703125 788.8911743164062 984.6801147460938 789.0678100585938 984.0401000976562 789.0678100585938 L 983.9401245117188 789.0678100585938 C 983.3001098632812 789.0678100585938 982.9801025390625 788.8911743164062 982.9801025390625 788.537841796875 L 982.9801025390625 780.3978271484375 C 982.9801025390625 779.6644897460938 982.7701416015625 779.094482421875 982.35009765625 778.6878051757812 C 981.9234619140625 778.2811279296875 981.3167724609375 778.0778198242188 980.5300903320312 778.0778198242188 C 979.3834228515625 778.0778198242188 978.3767700195312 778.6378173828125 977.5101318359375 779.7578125 L 977.5101318359375 788.537841796875 C 977.5101318359375 788.8911743164062 977.1901245117188 789.0678100585938 976.5501098632812 789.0678100585938 L 976.4501342773438 789.0678100585938 C 975.8101196289062 789.0678100585938 975.4901123046875 788.8911743164062 975.4901123046875 788.537841796875 ZM 995.933349609375 781.1978149414062 L 995.933349609375 780.0678100585938 C 995.933349609375 778.7211303710938 995.0533447265625 778.0478515625 993.2933349609375 778.0478515625 C 992.1466674804688 778.0478515625 991.0833129882812 778.2978515625 990.1033325195312 778.7978515625 C 989.77001953125 778.9711303710938 989.586669921875 779.0578002929688 989.5533447265625 779.0578002929688 C 989.393310546875 779.0578002929688 989.2133178710938 778.8978271484375 989.0133056640625 778.5778198242188 C 988.8133544921875 778.2578125 988.7133178710938 778.017822265625 988.7133178710938 777.8578491210938 C 988.7133178710938 777.5244750976562 989.1799926757812 777.1845092773438 990.1133422851562 776.8378295898438 C 991.0533447265625 776.4911499023438 992.1799926757812 776.3178100585938 993.4933471679688 776.3178100585938 C 994.7999877929688 776.3178100585938 995.8699951171875 776.6511840820312 996.7033081054688 777.3178100585938 C 997.5366821289062 777.9844970703125 997.9533081054688 778.9078369140625 997.9533081054688 780.0878295898438 L 997.9533081054688 785.4678344726562 C 997.9533081054688 786.4277954101562 997.9933471679688 787.12451171875 998.0733642578125 787.5578002929688 C 998.1866455078125 788.1444702148438 998.2433471679688 788.4544677734375 998.2433471679688 788.48779296875 C 998.2433471679688 788.68115234375 998.0900268554688 788.8211669921875 997.7833251953125 788.9078369140625 C 997.4833374023438 788.9945068359375 997.2466430664062 789.037841796875 997.0733642578125 789.037841796875 C 996.9066772460938 789.037841796875 996.7933349609375 789.0244750976562 996.7333374023438 788.997802734375 C 996.6666870117188 788.9644775390625 996.606689453125 788.9078369140625 996.5533447265625 788.8278198242188 C 996.4933471679688 788.747802734375 996.4466552734375 788.671142578125 996.413330078125 788.5978393554688 C 996.3866577148438 788.5244750976562 996.356689453125 788.4244995117188 996.3233642578125 788.2978515625 C 996.2899780273438 788.171142578125 996.260009765625 788.0711669921875 996.2333374023438 787.997802734375 C 996.2133178710938 787.9244995117188 996.1900024414062 787.8111572265625 996.163330078125 787.6578369140625 C 996.143310546875 787.5111694335938 996.1233520507812 787.4111328125 996.1033325195312 787.3578491210938 C 995.0166625976562 788.5578002929688 993.67333984375 789.1578369140625 992.0733642578125 789.1578369140625 C 990.8400268554688 789.1578369140625 989.8466796875 788.8544921875 989.0933227539062 788.247802734375 C 988.3466796875 787.6411743164062 987.9733276367188 786.7044677734375 987.9733276367188 785.4378051757812 C 987.9733276367188 784.1777954101562 988.4066772460938 783.2311401367188 989.2733154296875 782.5978393554688 C 990.1466674804688 781.9644775390625 991.1266479492188 781.5811767578125 992.2133178710938 781.4478149414062 C 993.306640625 781.3078002929688 994.5466918945312 781.2244873046875 995.933349609375 781.1978149414062 M 990.1333618164062 785.4378051757812 C 990.1333618164062 786.7511596679688 990.8133544921875 787.4078369140625 992.17333984375 787.4078369140625 C 992.9533081054688 787.4078369140625 993.6266479492188 787.2644653320312 994.193359375 786.9778442382812 C 994.7666625976562 786.691162109375 995.3466796875 786.2844848632812 995.933349609375 785.7578125 L 995.933349609375 782.9178466796875 C 993.933349609375 782.9178466796875 992.6466674804688 783.0311279296875 992.0733642578125 783.2578125 C 991.7666625976562 783.3711547851562 991.4466552734375 783.5144653320312 991.1133422851562 783.6878051757812 C 990.4600219726562 784.02783203125 990.1333618164062 784.6111450195312 990.1333618164062 785.4378051757812 ZM 1002.4386596679688 785.8478393554688 L 1002.4386596679688 778.1978149414062 L 1001.2386474609375 778.1978149414062 C 1000.9186401367188 778.1978149414062 1000.7586669921875 777.9578247070312 1000.7586669921875 777.4778442382812 L 1000.7586669921875 777.1878051757812 C 1000.7586669921875 776.7078247070312 1000.9186401367188 776.4678344726562 1001.2386474609375 776.4678344726562 L 1002.4386596679688 776.4678344726562 L 1002.7286376953125 773.9478149414062 C 1002.7553100585938 773.594482421875 1003.0086669921875 773.4178466796875 1003.4886474609375 773.4178466796875 L 1003.7286376953125 773.4178466796875 C 1004.2086791992188 773.4178466796875 1004.4486694335938 773.594482421875 1004.4486694335938 773.9478149414062 L 1004.4486694335938 776.4678344726562 L 1006.4686279296875 776.4678344726562 C 1006.7886352539062 776.4678344726562 1006.9486694335938 776.7078247070312 1006.9486694335938 777.1878051757812 L 1006.9486694335938 777.4778442382812 C 1006.9486694335938 777.9578247070312 1006.7886352539062 778.1978149414062 1006.4686279296875 778.1978149414062 L 1004.4486694335938 778.1978149414062 L 1004.4486694335938 785.6578369140625 C 1004.4486694335938 786.844482421875 1004.8819580078125 787.4378051757812 1005.7486572265625 787.4378051757812 C 1006.02197265625 787.4378051757812 1006.2553100585938 787.4178466796875 1006.4486694335938 787.3778076171875 C 1006.6353149414062 787.3378295898438 1006.7453002929688 787.3178100585938 1006.7786254882812 787.3178100585938 C 1006.92529296875 787.3178100585938 1007.0453491210938 787.4644775390625 1007.138671875 787.7578125 C 1007.2386474609375 788.0511474609375 1007.2886352539062 788.27783203125 1007.2886352539062 788.4378051757812 C 1007.2886352539062 788.9178466796875 1006.7019653320312 789.1578369140625 1005.5286254882812 789.1578369140625 C 1004.7286376953125 789.1578369140625 1004.0153198242188 788.9144897460938 1003.388671875 788.4277954101562 C 1002.7553100585938 787.941162109375 1002.4386596679688 787.0811767578125 1002.4386596679688 785.8478393554688 ZM 1011.1237182617188 773.4378051757812 C 1010.4837036132812 773.4378051757812 1010.1637573242188 773.2644653320312 1010.1637573242188 772.9178466796875 L 1010.1637573242188 771.497802734375 C 1010.1637573242188 771.1444702148438 1010.4837036132812 770.9678344726562 1011.1237182617188 770.9678344726562 L 1011.4137573242188 770.9678344726562 C 1012.0537109375 770.9678344726562 1012.3737182617188 771.1444702148438 1012.3737182617188 771.497802734375 L 1012.3737182617188 772.9178466796875 C 1012.3737182617188 773.2644653320312 1012.0537109375 773.4378051757812 1011.4137573242188 773.4378051757812 L 1011.1237182617188 773.4378051757812 M 1010.2537231445312 788.537841796875 L 1010.2537231445312 776.9478149414062 C 1010.2537231445312 776.594482421875 1010.57373046875 776.4178466796875 1011.2137451171875 776.4178466796875 L 1011.313720703125 776.4178466796875 C 1011.9537353515625 776.4178466796875 1012.2737426757812 776.594482421875 1012.2737426757812 776.9478149414062 L 1012.2737426757812 788.537841796875 C 1012.2737426757812 788.8911743164062 1011.9537353515625 789.0678100585938 1011.313720703125 789.0678100585938 L 1011.2137451171875 789.0678100585938 C 1010.57373046875 789.0678100585938 1010.2537231445312 788.8911743164062 1010.2537231445312 788.537841796875 ZM 1021.3114624023438 789.1578369140625 C 1021.3114624023438 789.1578369140625 1020.8614501953125 789.1578369140625 1019.9614868164062 789.1578369140625 C 1019.0614624023438 789.1578369140625 1018.134765625 788.614501953125 1017.1814575195312 787.52783203125 C 1016.2281494140625 786.441162109375 1015.75146484375 784.8611450195312 1015.75146484375 782.787841796875 C 1015.75146484375 780.7144775390625 1016.2314453125 779.1177978515625 1017.1914672851562 777.997802734375 C 1018.1514282226562 776.8778076171875 1019.5181274414062 776.3178100585938 1021.2914428710938 776.3178100585938 C 1023.0714721679688 776.3178100585938 1024.4281005859375 776.87451171875 1025.3614501953125 777.98779296875 C 1026.301513671875 779.1011352539062 1026.771484375 780.701171875 1026.771484375 782.787841796875 C 1026.771484375 784.87451171875 1026.3114013671875 786.4578247070312 1025.3914794921875 787.537841796875 C 1024.471435546875 788.6177978515625 1023.1114501953125 789.1578369140625 1021.3114624023438 789.1578369140625 M 1018.6814575195312 786.2978515625 C 1018.6814575195312 786.2978515625 1018.818115234375 786.48779296875 1019.0914306640625 786.8677978515625 C 1019.358154296875 787.247802734375 1020.078125 787.4378051757812 1021.25146484375 787.4378051757812 C 1022.4181518554688 787.4378051757812 1023.2814331054688 787.0578002929688 1023.8414306640625 786.2978515625 C 1024.4014892578125 785.537841796875 1024.681396484375 784.3578491210938 1024.681396484375 782.7578125 C 1024.681396484375 781.1578369140625 1024.4014892578125 779.9711303710938 1023.8414306640625 779.1978149414062 C 1023.2814331054688 778.43115234375 1022.4181518554688 778.0478515625 1021.25146484375 778.0478515625 C 1020.078125 778.0478515625 1019.221435546875 778.4277954101562 1018.6814575195312 779.1878051757812 C 1018.134765625 779.9478149414062 1017.8614501953125 781.1311645507812 1017.8614501953125 782.73779296875 C 1017.8614501953125 784.3511352539062 1018.134765625 785.537841796875 1018.6814575195312 786.2978515625 ZM 1030.142578125 788.537841796875 L 1030.142578125 780.1177978515625 C 1030.142578125 779.1378173828125 1030.1025390625 778.441162109375 1030.0224609375 778.02783203125 C 1029.9158935546875 777.4478149414062 1029.862548828125 777.1344604492188 1029.862548828125 777.0878295898438 C 1029.862548828125 776.8944702148438 1030.0125732421875 776.7545166015625 1030.3125 776.6678466796875 C 1030.619140625 776.5811767578125 1030.8558349609375 776.537841796875 1031.0224609375 776.537841796875 C 1031.189208984375 776.537841796875 1031.305908203125 776.5545043945312 1031.37255859375 776.5878295898438 C 1031.4324951171875 776.6211547851562 1031.4925537109375 776.671142578125 1031.552490234375 776.73779296875 C 1031.6058349609375 776.8111572265625 1031.649169921875 776.8844604492188 1031.6824951171875 776.9578247070312 C 1031.7158203125 777.0311279296875 1031.7491455078125 777.1278076171875 1031.782470703125 777.247802734375 C 1031.8092041015625 777.3677978515625 1031.8358154296875 777.4644775390625 1031.862548828125 777.537841796875 C 1031.88916015625 777.6044921875 1031.9124755859375 777.7078247070312 1031.9324951171875 777.8478393554688 C 1031.959228515625 777.9811401367188 1031.9791259765625 778.0711669921875 1031.9925537109375 778.1177978515625 C 1033.0657958984375 776.9178466796875 1034.2625732421875 776.3178100585938 1035.58251953125 776.3178100585938 C 1036.9024658203125 776.3178100585938 1037.9091796875 776.6644897460938 1038.6025390625 777.3578491210938 C 1039.302490234375 778.0444946289062 1039.6524658203125 778.9945068359375 1039.6524658203125 780.2078247070312 L 1039.6524658203125 788.537841796875 C 1039.6524658203125 788.8911743164062 1039.33251953125 789.0678100585938 1038.6925048828125 789.0678100585938 L 1038.592529296875 789.0678100585938 C 1037.9525146484375 789.0678100585938 1037.632568359375 788.8911743164062 1037.632568359375 788.537841796875 L 1037.632568359375 780.3978271484375 C 1037.632568359375 779.6644897460938 1037.4224853515625 779.094482421875 1037.0025634765625 778.6878051757812 C 1036.5758056640625 778.2811279296875 1035.96923828125 778.0778198242188 1035.1824951171875 778.0778198242188 C 1034.035888671875 778.0778198242188 1033.0291748046875 778.6378173828125 1032.1624755859375 779.7578125 L 1032.1624755859375 788.537841796875 C 1032.1624755859375 788.8911743164062 1031.842529296875 789.0678100585938 1031.2025146484375 789.0678100585938 L 1031.1025390625 789.0678100585938 C 1030.4625244140625 789.0678100585938 1030.142578125 788.8911743164062 1030.142578125 788.537841796875 ZM 1054.083740234375 789.1578369140625 C 1054.083740234375 789.1578369140625 1053.6337890625 789.1578369140625 1052.7337646484375 789.1578369140625 C 1051.833740234375 789.1578369140625 1050.9071044921875 788.614501953125 1049.9537353515625 787.52783203125 C 1049.0003662109375 786.441162109375 1048.523681640625 784.8611450195312 1048.523681640625 782.787841796875 C 1048.523681640625 780.7144775390625 1049.0037841796875 779.1177978515625 1049.9637451171875 777.997802734375 C 1050.9237060546875 776.8778076171875 1052.2904052734375 776.3178100585938 1054.063720703125 776.3178100585938 C 1055.84375 776.3178100585938 1057.200439453125 776.87451171875 1058.1337890625 777.98779296875 C 1059.07373046875 779.1011352539062 1059.543701171875 780.701171875 1059.543701171875 782.787841796875 C 1059.543701171875 784.87451171875 1059.083740234375 786.4578247070312 1058.1636962890625 787.537841796875 C 1057.2437744140625 788.6177978515625 1055.8837890625 789.1578369140625 1054.083740234375 789.1578369140625 M 1051.4537353515625 786.2978515625 C 1051.4537353515625 786.2978515625 1051.5904541015625 786.48779296875 1051.86376953125 786.8677978515625 C 1052.13037109375 787.247802734375 1052.850341796875 787.4378051757812 1054.023681640625 787.4378051757812 C 1055.1904296875 787.4378051757812 1056.0537109375 787.0578002929688 1056.61376953125 786.2978515625 C 1057.1737060546875 785.537841796875 1057.4537353515625 784.3578491210938 1057.4537353515625 782.7578125 C 1057.4537353515625 781.1578369140625 1057.1737060546875 779.9711303710938 1056.61376953125 779.1978149414062 C 1056.0537109375 778.43115234375 1055.1904296875 778.0478515625 1054.023681640625 778.0478515625 C 1052.850341796875 778.0478515625 1051.9937744140625 778.4277954101562 1051.4537353515625 779.1878051757812 C 1050.9071044921875 779.9478149414062 1050.6337890625 781.1311645507812 1050.6337890625 782.73779296875 C 1050.6337890625 784.3511352539062 1050.9071044921875 785.537841796875 1051.4537353515625 786.2978515625 ZM 1063.44482421875 788.537841796875 L 1063.44482421875 778.1978149414062 L 1062.48486328125 778.1978149414062 C 1062.1649169921875 778.1978149414062 1062.0048828125 777.9578247070312 1062.0048828125 777.4778442382812 L 1062.0048828125 777.1878051757812 C 1062.0048828125 776.7078247070312 1062.1649169921875 776.4678344726562 1062.48486328125 776.4678344726562 L 1063.44482421875 776.4678344726562 L 1063.44482421875 774.1878051757812 C 1063.44482421875 772.8078002929688 1063.8148193359375 771.8944702148438 1064.5548095703125 771.4478149414062 C 1065.1748046875 771.0678100585938 1065.838134765625 770.8778076171875 1066.5447998046875 770.8778076171875 C 1067.7115478515625 770.8778076171875 1068.2947998046875 771.1177978515625 1068.2947998046875 771.5978393554688 C 1068.2947998046875 771.7578125 1068.2481689453125 771.9844970703125 1068.1549072265625 772.27783203125 C 1068.0548095703125 772.5711669921875 1067.934814453125 772.7178344726562 1067.7947998046875 772.7178344726562 C 1067.761474609375 772.7178344726562 1067.648193359375 772.6978149414062 1067.454833984375 772.6578369140625 C 1067.261474609375 772.6177978515625 1066.994873046875 772.5978393554688 1066.6549072265625 772.5978393554688 C 1066.3082275390625 772.5978393554688 1066.021484375 772.7144775390625 1065.7947998046875 772.9478149414062 C 1065.5748291015625 773.18115234375 1065.46484375 773.6578369140625 1065.46484375 774.3778076171875 L 1065.46484375 776.4678344726562 L 1067.5548095703125 776.4678344726562 C 1067.8748779296875 776.4678344726562 1068.034912109375 776.7078247070312 1068.034912109375 777.1878051757812 L 1068.034912109375 777.4778442382812 C 1068.034912109375 777.9578247070312 1067.8748779296875 778.1978149414062 1067.5548095703125 778.1978149414062 L 1065.46484375 778.1978149414062 L 1065.46484375 788.537841796875 C 1065.46484375 788.8911743164062 1065.1448974609375 789.0678100585938 1064.5048828125 789.0678100585938 L 1064.4049072265625 789.0678100585938 C 1063.764892578125 789.0678100585938 1063.44482421875 788.8911743164062 1063.44482421875 788.537841796875 ZM 1076.6700439453125 788.537841796875 L 1076.6700439453125 771.497802734375 C 1076.6700439453125 771.1444702148438 1076.989990234375 770.9678344726562 1077.6300048828125 770.9678344726562 L 1077.7200927734375 770.9678344726562 C 1078.3599853515625 770.9678344726562 1078.6800537109375 771.1444702148438 1078.6800537109375 771.497802734375 L 1078.6800537109375 782.2278442382812 L 1078.780029296875 782.2278442382812 L 1083.3599853515625 776.7578125 C 1083.5400390625 776.5311279296875 1083.96337890625 776.4178466796875 1084.6300048828125 776.4178466796875 L 1084.72998046875 776.4178466796875 C 1085.2900390625 776.4178466796875 1085.570068359375 776.5211791992188 1085.570068359375 776.7278442382812 C 1085.570068359375 776.87451171875 1085.489990234375 777.0344848632812 1085.330078125 777.2078247070312 L 1080.8699951171875 782.48779296875 L 1085.81005859375 788.3478393554688 C 1085.9566650390625 788.5078125 1086.030029296875 788.6344604492188 1086.030029296875 788.7278442382812 C 1086.030029296875 788.9544677734375 1085.6767578125 789.0678100585938 1084.9700927734375 789.0678100585938 L 1084.8699951171875 789.0678100585938 C 1084.183349609375 789.0678100585938 1083.75341796875 788.9644775390625 1083.580078125 788.7578125 L 1078.780029296875 783.0678100585938 L 1078.6800537109375 783.0678100585938 L 1078.6800537109375 788.537841796875 C 1078.6800537109375 788.8911743164062 1078.3599853515625 789.0678100585938 1077.7200927734375 789.0678100585938 L 1077.6300048828125 789.0678100585938 C 1076.989990234375 789.0678100585938 1076.6700439453125 788.8911743164062 1076.6700439453125 788.537841796875 ZM 1094.1094970703125 789.1578369140625 C 1092.1094970703125 789.1578369140625 1090.6295166015625 788.6378173828125 1089.6695556640625 787.5978393554688 C 1088.7095947265625 786.5578002929688 1088.2294921875 784.9711303710938 1088.2294921875 782.8378295898438 C 1088.2294921875 780.7044677734375 1088.702880859375 779.08447265625 1089.6495361328125 777.9778442382812 C 1090.589599609375 776.8711547851562 1091.932861328125 776.3178100585938 1093.6795654296875 776.3178100585938 C 1097.0728759765625 776.3178100585938 1098.76953125 778.4078369140625 1098.76953125 782.5878295898438 C 1098.76953125 782.7278442382812 1098.6728515625 782.9277954101562 1098.4794921875 783.1878051757812 C 1098.2862548828125 783.441162109375 1098.1162109375 783.5678100585938 1097.9696044921875 783.5678100585938 L 1090.3895263671875 783.5678100585938 C 1090.48291015625 784.8944702148438 1090.826171875 785.8711547851562 1091.4195556640625 786.497802734375 C 1092.012939453125 787.12451171875 1092.90283203125 787.4378051757812 1094.089599609375 787.4378051757812 C 1095.17626953125 787.4378051757812 1096.17626953125 787.18115234375 1097.089599609375 786.6678466796875 C 1097.3895263671875 786.5078125 1097.55615234375 786.4277954101562 1097.589599609375 786.4277954101562 C 1097.74951171875 786.4277954101562 1097.9295654296875 786.5878295898438 1098.1295166015625 786.9078369140625 C 1098.32958984375 787.2278442382812 1098.4295654296875 787.4678344726562 1098.4295654296875 787.6278076171875 C 1098.4295654296875 787.9478149414062 1097.992919921875 788.2844848632812 1097.1195068359375 788.6378173828125 C 1096.2462158203125 788.9844970703125 1095.242919921875 789.1578369140625 1094.1094970703125 789.1578369140625 M 1096.6295166015625 781.8378295898438 C 1096.6295166015625 779.3111572265625 1095.6695556640625 778.0478515625 1093.74951171875 778.0478515625 C 1091.682861328125 778.0478515625 1090.5628662109375 779.3111572265625 1090.3895263671875 781.8378295898438 L 1096.6295166015625 781.8378295898438 ZM 1107.0408935546875 789.1578369140625 C 1105.0408935546875 789.1578369140625 1103.5609130859375 788.6378173828125 1102.6009521484375 787.5978393554688 C 1101.6409912109375 786.5578002929688 1101.160888671875 784.9711303710938 1101.160888671875 782.8378295898438 C 1101.160888671875 780.7044677734375 1101.63427734375 779.08447265625 1102.5809326171875 777.9778442382812 C 1103.52099609375 776.8711547851562 1104.8642578125 776.3178100585938 1106.6109619140625 776.3178100585938 C 1110.0042724609375 776.3178100585938 1111.700927734375 778.4078369140625 1111.700927734375 782.5878295898438 C 1111.700927734375 782.7278442382812 1111.604248046875 782.9277954101562 1111.410888671875 783.1878051757812 C 1111.2176513671875 783.441162109375 1111.047607421875 783.5678100585938 1110.9010009765625 783.5678100585938 L 1103.3209228515625 783.5678100585938 C 1103.414306640625 784.8944702148438 1103.757568359375 785.8711547851562 1104.3509521484375 786.497802734375 C 1104.9443359375 787.12451171875 1105.834228515625 787.4378051757812 1107.02099609375 787.4378051757812 C 1108.107666015625 787.4378051757812 1109.107666015625 787.18115234375 1110.02099609375 786.6678466796875 C 1110.3209228515625 786.5078125 1110.487548828125 786.4277954101562 1110.52099609375 786.4277954101562 C 1110.680908203125 786.4277954101562 1110.8609619140625 786.5878295898438 1111.0609130859375 786.9078369140625 C 1111.260986328125 787.2278442382812 1111.3609619140625 787.4678344726562 1111.3609619140625 787.6278076171875 C 1111.3609619140625 787.9478149414062 1110.92431640625 788.2844848632812 1110.0509033203125 788.6378173828125 C 1109.1776123046875 788.9844970703125 1108.17431640625 789.1578369140625 1107.0408935546875 789.1578369140625 M 1109.5609130859375 781.8378295898438 C 1109.5609130859375 779.3111572265625 1108.6009521484375 778.0478515625 1106.680908203125 778.0478515625 C 1104.6142578125 778.0478515625 1103.4942626953125 779.3111572265625 1103.3209228515625 781.8378295898438 L 1109.5609130859375 781.8378295898438 ZM 1116.852294921875 793.4778442382812 C 1116.852294921875 793.8311767578125 1116.5323486328125 794.0078125 1115.892333984375 794.0078125 L 1115.7923583984375 794.0078125 C 1115.15234375 794.0078125 1114.8323974609375 793.8311767578125 1114.8323974609375 793.4778442382812 L 1114.8323974609375 780.1177978515625 C 1114.8323974609375 779.1378173828125 1114.7923583984375 778.441162109375 1114.7122802734375 778.02783203125 C 1114.605712890625 777.4478149414062 1114.5523681640625 777.1344604492188 1114.5523681640625 777.0878295898438 C 1114.5523681640625 776.8944702148438 1114.702392578125 776.7545166015625 1115.0023193359375 776.6678466796875 C 1115.3089599609375 776.5811767578125 1115.545654296875 776.537841796875 1115.7122802734375 776.537841796875 C 1115.8790283203125 776.537841796875 1115.9957275390625 776.5545043945312 1116.0623779296875 776.5878295898438 C 1116.122314453125 776.6211547851562 1116.182373046875 776.671142578125 1116.2423095703125 776.73779296875 C 1116.295654296875 776.8111572265625 1116.3389892578125 776.8844604492188 1116.372314453125 776.9578247070312 C 1116.4056396484375 777.0311279296875 1116.43896484375 777.1278076171875 1116.4722900390625 777.247802734375 C 1116.4990234375 777.3677978515625 1116.525634765625 777.4644775390625 1116.5523681640625 777.537841796875 C 1116.5789794921875 777.6044921875 1116.602294921875 777.7078247070312 1116.622314453125 777.8478393554688 C 1116.6490478515625 777.9811401367188 1116.6689453125 778.0711669921875 1116.682373046875 778.1177978515625 C 1117.835693359375 776.9178466796875 1119.11572265625 776.3178100585938 1120.5223388671875 776.3178100585938 C 1121.928955078125 776.3178100585938 1123.0523681640625 776.9111328125 1123.892333984375 778.0978393554688 C 1124.7322998046875 779.2844848632812 1125.15234375 780.8045043945312 1125.15234375 782.6578369140625 L 1125.15234375 782.8778076171875 C 1125.15234375 784.844482421875 1124.7056884765625 786.3844604492188 1123.8123779296875 787.497802734375 C 1122.9189453125 788.6044921875 1121.7989501953125 789.1578369140625 1120.452392578125 789.1578369140625 C 1119.105712890625 789.1578369140625 1117.9056396484375 788.7511596679688 1116.852294921875 787.9378051757812 L 1116.852294921875 793.4778442382812 M 1119.7523193359375 787.3878173828125 L 1119.90234375 787.3878173828125 C 1120.92236328125 787.3677978515625 1121.702392578125 786.9744873046875 1122.2423095703125 786.2078247070312 C 1122.775634765625 785.441162109375 1123.0423583984375 784.3145141601562 1123.0423583984375 782.8278198242188 C 1123.0423583984375 781.3411254882812 1122.78564453125 780.1777954101562 1122.2723388671875 779.3378295898438 C 1121.765625 778.497802734375 1120.9857177734375 778.0778198242188 1119.932373046875 778.0778198242188 C 1118.8856201171875 778.0778198242188 1117.8590087890625 778.6278076171875 1116.852294921875 779.7278442382812 L 1116.852294921875 786.3078002929688 C 1117.718994140625 787.02783203125 1118.6856689453125 787.3878173828125 1119.7523193359375 787.3878173828125 ZM 1129.5694580078125 773.4378051757812 C 1128.929443359375 773.4378051757812 1128.609375 773.2644653320312 1128.609375 772.9178466796875 L 1128.609375 771.497802734375 C 1128.609375 771.1444702148438 1128.929443359375 770.9678344726562 1129.5694580078125 770.9678344726562 L 1129.859375 770.9678344726562 C 1130.4993896484375 770.9678344726562 1130.8194580078125 771.1444702148438 1130.8194580078125 771.497802734375 L 1130.8194580078125 772.9178466796875 C 1130.8194580078125 773.2644653320312 1130.4993896484375 773.4378051757812 1129.859375 773.4378051757812 L 1129.5694580078125 773.4378051757812 M 1128.699462890625 788.537841796875 L 1128.699462890625 776.9478149414062 C 1128.699462890625 776.594482421875 1129.0194091796875 776.4178466796875 1129.659423828125 776.4178466796875 L 1129.7593994140625 776.4178466796875 C 1130.3994140625 776.4178466796875 1130.7193603515625 776.594482421875 1130.7193603515625 776.9478149414062 L 1130.7193603515625 788.537841796875 C 1130.7193603515625 788.8911743164062 1130.3994140625 789.0678100585938 1129.7593994140625 789.0678100585938 L 1129.659423828125 789.0678100585938 C 1129.0194091796875 789.0678100585938 1128.699462890625 788.8911743164062 1128.699462890625 788.537841796875 ZM 1134.937255859375 788.537841796875 L 1134.937255859375 780.1177978515625 C 1134.937255859375 779.1378173828125 1134.897216796875 778.441162109375 1134.817138671875 778.02783203125 C 1134.7105712890625 777.4478149414062 1134.6572265625 777.1344604492188 1134.6572265625 777.0878295898438 C 1134.6572265625 776.8944702148438 1134.8072509765625 776.7545166015625 1135.107177734375 776.6678466796875 C 1135.413818359375 776.5811767578125 1135.6505126953125 776.537841796875 1135.817138671875 776.537841796875 C 1135.98388671875 776.537841796875 1136.1005859375 776.5545043945312 1136.167236328125 776.5878295898438 C 1136.2271728515625 776.6211547851562 1136.2872314453125 776.671142578125 1136.34716796875 776.73779296875 C 1136.4005126953125 776.8111572265625 1136.44384765625 776.8844604492188 1136.4771728515625 776.9578247070312 C 1136.510498046875 777.0311279296875 1136.5438232421875 777.1278076171875 1136.5771484375 777.247802734375 C 1136.6038818359375 777.3677978515625 1136.6304931640625 777.4644775390625 1136.6572265625 777.537841796875 C 1136.683837890625 777.6044921875 1136.7071533203125 777.7078247070312 1136.7271728515625 777.8478393554688 C 1136.75390625 777.9811401367188 1136.7738037109375 778.0711669921875 1136.7872314453125 778.1177978515625 C 1137.8604736328125 776.9178466796875 1139.0572509765625 776.3178100585938 1140.377197265625 776.3178100585938 C 1141.6971435546875 776.3178100585938 1142.703857421875 776.6644897460938 1143.397216796875 777.3578491210938 C 1144.09716796875 778.0444946289062 1144.4471435546875 778.9945068359375 1144.4471435546875 780.2078247070312 L 1144.4471435546875 788.537841796875 C 1144.4471435546875 788.8911743164062 1144.127197265625 789.0678100585938 1143.4871826171875 789.0678100585938 L 1143.38720703125 789.0678100585938 C 1142.7471923828125 789.0678100585938 1142.42724609375 788.8911743164062 1142.42724609375 788.537841796875 L 1142.42724609375 780.3978271484375 C 1142.42724609375 779.6644897460938 1142.2171630859375 779.094482421875 1141.7972412109375 778.6878051757812 C 1141.3704833984375 778.2811279296875 1140.763916015625 778.0778198242188 1139.9771728515625 778.0778198242188 C 1138.83056640625 778.0778198242188 1137.8238525390625 778.6378173828125 1136.9571533203125 779.7578125 L 1136.9571533203125 788.537841796875 C 1136.9571533203125 788.8911743164062 1136.63720703125 789.0678100585938 1135.9971923828125 789.0678100585938 L 1135.897216796875 789.0678100585938 C 1135.2572021484375 789.0678100585938 1134.937255859375 788.8911743164062 1134.937255859375 788.537841796875 ZM 1147.060302734375 790.9578247070312 C 1147.060302734375 789.6511840820312 1147.9637451171875 788.6777954101562 1149.7703857421875 788.037841796875 C 1148.74365234375 787.6044921875 1148.2303466796875 786.9345092773438 1148.2303466796875 786.02783203125 C 1148.2303466796875 785.1278076171875 1148.84033203125 784.4678344726562 1150.060302734375 784.0478515625 C 1149.3536376953125 783.7144775390625 1148.813720703125 783.2311401367188 1148.4403076171875 782.5978393554688 C 1148.060302734375 781.9644775390625 1147.870361328125 781.2578125 1147.870361328125 780.4778442382812 C 1147.870361328125 779.27783203125 1148.2904052734375 778.2844848632812 1149.13037109375 777.497802734375 C 1149.9703369140625 776.711181640625 1151.150390625 776.3178100585938 1152.67041015625 776.3178100585938 C 1153.2503662109375 776.3178100585938 1153.7803955078125 776.3677978515625 1154.2603759765625 776.4678344726562 L 1158.38037109375 776.4678344726562 C 1158.7003173828125 776.4678344726562 1158.8603515625 776.7078247070312 1158.8603515625 777.1878051757812 L 1158.8603515625 777.4778442382812 C 1158.8603515625 777.9578247070312 1158.7003173828125 778.1978149414062 1158.38037109375 778.1978149414062 L 1156.7003173828125 778.1978149414062 C 1157.233642578125 778.8378295898438 1157.5003662109375 779.5978393554688 1157.5003662109375 780.4778442382812 C 1157.5003662109375 781.6578369140625 1157.07373046875 782.6411743164062 1156.2203369140625 783.4277954101562 C 1155.3736572265625 784.2078247070312 1154.1903076171875 784.5978393554688 1152.67041015625 784.5978393554688 L 1152.4302978515625 784.5978393554688 C 1151.0570068359375 784.6644897460938 1150.370361328125 785.0011596679688 1150.370361328125 785.6078491210938 C 1150.370361328125 785.9478149414062 1150.650390625 786.201171875 1151.2103271484375 786.3677978515625 C 1151.7703857421875 786.5344848632812 1152.447021484375 786.6644897460938 1153.2403564453125 786.7578125 C 1154.0269775390625 786.8578491210938 1154.8170166015625 786.9945068359375 1155.6103515625 787.1678466796875 C 1156.4036865234375 787.3478393554688 1157.080322265625 787.7044677734375 1157.640380859375 788.23779296875 C 1158.2003173828125 788.7711791992188 1158.4803466796875 789.4711303710938 1158.4803466796875 790.3378295898438 C 1158.4803466796875 791.4244995117188 1157.947021484375 792.324462890625 1156.88037109375 793.037841796875 C 1155.8203125 793.7511596679688 1154.390380859375 794.1078491210938 1152.59033203125 794.1078491210938 C 1150.7904052734375 794.1078491210938 1149.4169921875 793.8711547851562 1148.4703369140625 793.3978271484375 C 1147.5303955078125 792.9244995117188 1147.060302734375 792.1111450195312 1147.060302734375 790.9578247070312 M 1149.9803466796875 780.4578247070312 C 1149.9803466796875 780.4578247070312 1149.9803466796875 780.8611450195312 1149.9803466796875 781.6678466796875 C 1149.9803466796875 782.4744873046875 1150.88037109375 782.8778076171875 1152.6802978515625 782.8778076171875 C 1154.4803466796875 782.8778076171875 1155.38037109375 782.0711669921875 1155.38037109375 780.4578247070312 C 1155.38037109375 778.8511352539062 1154.4803466796875 778.0478515625 1152.6802978515625 778.0478515625 C 1150.88037109375 778.0478515625 1149.9803466796875 778.8511352539062 1149.9803466796875 780.4578247070312 M 1149.140380859375 790.747802734375 C 1149.140380859375 791.83447265625 1150.34033203125 792.3778076171875 1152.7403564453125 792.3778076171875 C 1153.813720703125 792.3778076171875 1154.6837158203125 792.1945190429688 1155.350341796875 791.8278198242188 C 1156.0103759765625 791.461181640625 1156.34033203125 791.0045166015625 1156.34033203125 790.4578247070312 C 1156.34033203125 790.0244750976562 1156.156982421875 789.7044677734375 1155.7904052734375 789.497802734375 C 1155.1837158203125 789.1644897460938 1154.0970458984375 788.8911743164062 1152.5303955078125 788.6777954101562 C 1152.1103515625 788.6177978515625 1151.7803955078125 788.5645141601562 1151.5404052734375 788.517822265625 C 1150.92041015625 788.7578125 1150.3670654296875 789.0678100585938 1149.88037109375 789.4478149414062 C 1149.386962890625 789.83447265625 1149.140380859375 790.267822265625 1149.140380859375 790.747802734375 ZM 1170.7376708984375 788.537841796875 L 1170.7376708984375 780.3978271484375 L 1165.7176513671875 773.0078125 C 1165.5909423828125 772.83447265625 1165.5277099609375 772.691162109375 1165.5277099609375 772.5778198242188 C 1165.5277099609375 772.3045043945312 1165.897705078125 772.1678466796875 1166.6376953125 772.1678466796875 L 1166.897705078125 772.1678466796875 C 1167.42431640625 772.1678466796875 1167.7677001953125 772.287841796875 1167.9276123046875 772.52783203125 L 1171.86767578125 778.4378051757812 L 1175.897705078125 772.5078125 C 1176.0443115234375 772.2811279296875 1176.4443359375 772.1678466796875 1177.09765625 772.1678466796875 C 1177.7509765625 772.1678466796875 1178.07763671875 772.3045043945312 1178.07763671875 772.5778198242188 C 1178.07763671875 772.6444702148438 1178.0142822265625 772.787841796875 1177.8876953125 773.0078125 L 1172.84765625 780.4778442382812 L 1172.84765625 788.537841796875 C 1172.84765625 788.8911743164062 1172.5277099609375 789.0678100585938 1171.8876953125 789.0678100585938 L 1171.6976318359375 789.0678100585938 C 1171.0576171875 789.0678100585938 1170.7376708984375 788.8911743164062 1170.7376708984375 788.537841796875 ZM 1185.3887939453125 789.1578369140625 C 1185.3887939453125 789.1578369140625 1184.9388427734375 789.1578369140625 1184.038818359375 789.1578369140625 C 1183.1387939453125 789.1578369140625 1182.212158203125 788.614501953125 1181.2587890625 787.52783203125 C 1180.305419921875 786.441162109375 1179.8287353515625 784.8611450195312 1179.8287353515625 782.787841796875 C 1179.8287353515625 780.7144775390625 1180.308837890625 779.1177978515625 1181.268798828125 777.997802734375 C 1182.228759765625 776.8778076171875 1183.595458984375 776.3178100585938 1185.3687744140625 776.3178100585938 C 1187.1488037109375 776.3178100585938 1188.5054931640625 776.87451171875 1189.4388427734375 777.98779296875 C 1190.3787841796875 779.1011352539062 1190.8487548828125 780.701171875 1190.8487548828125 782.787841796875 C 1190.8487548828125 784.87451171875 1190.3887939453125 786.4578247070312 1189.46875 787.537841796875 C 1188.548828125 788.6177978515625 1187.1888427734375 789.1578369140625 1185.3887939453125 789.1578369140625 M 1182.7587890625 786.2978515625 C 1182.7587890625 786.2978515625 1182.8955078125 786.48779296875 1183.1688232421875 786.8677978515625 C 1183.4354248046875 787.247802734375 1184.1553955078125 787.4378051757812 1185.3287353515625 787.4378051757812 C 1186.4954833984375 787.4378051757812 1187.3587646484375 787.0578002929688 1187.9188232421875 786.2978515625 C 1188.478759765625 785.537841796875 1188.7587890625 784.3578491210938 1188.7587890625 782.7578125 C 1188.7587890625 781.1578369140625 1188.478759765625 779.9711303710938 1187.9188232421875 779.1978149414062 C 1187.3587646484375 778.43115234375 1186.4954833984375 778.0478515625 1185.3287353515625 778.0478515625 C 1184.1553955078125 778.0478515625 1183.298828125 778.4277954101562 1182.7587890625 779.1878051757812 C 1182.212158203125 779.9478149414062 1181.9388427734375 781.1311645507812 1181.9388427734375 782.73779296875 C 1181.9388427734375 784.3511352539062 1182.212158203125 785.537841796875 1182.7587890625 786.2978515625 ZM 1193.9599609375 785.27783203125 L 1193.9599609375 776.9478149414062 C 1193.9599609375 776.594482421875 1194.2799072265625 776.4178466796875 1194.919921875 776.4178466796875 L 1195.0198974609375 776.4178466796875 C 1195.659912109375 776.4178466796875 1195.9798583984375 776.594482421875 1195.9798583984375 776.9478149414062 L 1195.9798583984375 785.0778198242188 C 1195.9798583984375 785.8178100585938 1196.18994140625 786.3911743164062 1196.60986328125 786.7978515625 C 1197.03662109375 787.2044677734375 1197.639892578125 787.4078369140625 1198.419921875 787.4078369140625 C 1199.5732421875 787.4078369140625 1200.583251953125 786.8478393554688 1201.449951171875 785.7278442382812 L 1201.449951171875 776.9478149414062 C 1201.449951171875 776.594482421875 1201.7698974609375 776.4178466796875 1202.409912109375 776.4178466796875 L 1202.4998779296875 776.4178466796875 C 1203.139892578125 776.4178466796875 1203.4599609375 776.594482421875 1203.4599609375 776.9478149414062 L 1203.4599609375 785.4678344726562 C 1203.4599609375 786.4277954101562 1203.4998779296875 787.12451171875 1203.5799560546875 787.5578002929688 C 1203.6932373046875 788.1444702148438 1203.7498779296875 788.4544677734375 1203.7498779296875 788.48779296875 C 1203.7498779296875 788.68115234375 1203.599853515625 788.8211669921875 1203.2999267578125 788.9078369140625 C 1202.9932861328125 788.9945068359375 1202.756591796875 789.037841796875 1202.5899658203125 789.037841796875 C 1202.4232177734375 789.037841796875 1202.3065185546875 789.0244750976562 1202.2398681640625 788.997802734375 C 1202.1732177734375 788.9644775390625 1202.11328125 788.9078369140625 1202.0599365234375 788.8278198242188 C 1202.006591796875 788.747802734375 1201.9632568359375 788.671142578125 1201.929931640625 788.5978393554688 C 1201.8966064453125 788.5244750976562 1201.86328125 788.4244995117188 1201.8299560546875 788.2978515625 C 1201.796630859375 788.171142578125 1201.7698974609375 788.0711669921875 1201.7498779296875 787.997802734375 C 1201.7232666015625 787.9244995117188 1201.699951171875 787.8111572265625 1201.679931640625 787.6578369140625 C 1201.6531982421875 787.5111694335938 1201.63330078125 787.4111328125 1201.619873046875 787.3578491210938 C 1200.546630859375 788.5578002929688 1199.349853515625 789.1578369140625 1198.0299072265625 789.1578369140625 C 1196.7099609375 789.1578369140625 1195.699951171875 788.8145141601562 1194.9998779296875 788.1278076171875 C 1194.3065185546875 787.441162109375 1193.9599609375 786.4911499023438 1193.9599609375 785.27783203125 ZM 1207.6832275390625 788.537841796875 L 1207.6832275390625 780.1177978515625 C 1207.6832275390625 779.1378173828125 1207.6431884765625 778.441162109375 1207.563232421875 778.02783203125 C 1207.4498291015625 777.4478149414062 1207.3931884765625 777.1344604492188 1207.3931884765625 777.0878295898438 C 1207.3931884765625 776.8944702148438 1207.5465087890625 776.7545166015625 1207.8531494140625 776.6678466796875 C 1208.1531982421875 776.5811767578125 1208.389892578125 776.537841796875 1208.563232421875 776.537841796875 C 1208.7298583984375 776.537841796875 1208.8431396484375 776.5545043945312 1208.9031982421875 776.5878295898438 C 1208.9698486328125 776.6211547851562 1209.0299072265625 776.671142578125 1209.083251953125 776.73779296875 C 1209.1431884765625 776.8111572265625 1209.1898193359375 776.8844604492188 1209.22314453125 776.9578247070312 C 1209.2498779296875 777.0311279296875 1209.2799072265625 777.1278076171875 1209.313232421875 777.247802734375 C 1209.3465576171875 777.3677978515625 1209.3765869140625 777.4644775390625 1209.4031982421875 777.537841796875 C 1209.4232177734375 777.6044921875 1209.446533203125 777.7078247070312 1209.47314453125 777.8478393554688 C 1209.4931640625 777.9811401367188 1209.51318359375 778.0711669921875 1209.533203125 778.1177978515625 C 1210.3798828125 776.9178466796875 1211.3065185546875 776.3178100585938 1212.313232421875 776.3178100585938 C 1212.7598876953125 776.3178100585938 1213.1031494140625 776.4078369140625 1213.3431396484375 776.5878295898438 C 1213.583251953125 776.7611694335938 1213.7032470703125 776.9844970703125 1213.7032470703125 777.2578125 C 1213.7032470703125 777.5311279296875 1213.656494140625 777.8145141601562 1213.563232421875 778.1078491210938 C 1213.4698486328125 778.4078369140625 1213.3565673828125 778.5578002929688 1213.22314453125 778.5578002929688 C 1213.1632080078125 778.5578002929688 1213.0098876953125 778.5111694335938 1212.76318359375 778.4178466796875 C 1212.5098876953125 778.3311767578125 1212.213134765625 778.287841796875 1211.8731689453125 778.287841796875 C 1211.5264892578125 778.287841796875 1211.1697998046875 778.4111328125 1210.80322265625 778.6578369140625 C 1210.4365234375 778.9111328125 1210.1632080078125 779.1578369140625 1209.983154296875 779.3978271484375 L 1209.7032470703125 779.7578125 L 1209.7032470703125 788.537841796875 C 1209.7032470703125 788.8911743164062 1209.3831787109375 789.0678100585938 1208.7431640625 789.0678100585938 L 1208.6431884765625 789.0678100585938 C 1208.003173828125 789.0678100585938 1207.6832275390625 788.8911743164062 1207.6832275390625 788.537841796875 ZM 1220.4219970703125 772.5778198242188 C 1220.4219970703125 772.3045043945312 1220.765380859375 772.1678466796875 1221.4520263671875 772.1678466796875 L 1221.6920166015625 772.1678466796875 C 1222.27197265625 772.1678466796875 1222.592041015625 772.2978515625 1222.6519775390625 772.5578002929688 L 1225.7020263671875 784.3578491210938 C 1225.8153076171875 784.8111572265625 1225.9154052734375 785.2911376953125 1226.001953125 785.7978515625 C 1226.088623046875 786.3111572265625 1226.1319580078125 786.5778198242188 1226.1319580078125 786.5978393554688 L 1229.612060546875 772.5778198242188 C 1229.6787109375 772.3045043945312 1229.9920654296875 772.1678466796875 1230.552001953125 772.1678466796875 L 1230.9320068359375 772.1678466796875 C 1231.4920654296875 772.1678466796875 1231.8052978515625 772.3045043945312 1231.8720703125 772.5778198242188 L 1234.842041015625 784.3878173828125 L 1235.251953125 786.5978393554688 L 1238.7320556640625 772.5578002929688 C 1238.7987060546875 772.2978515625 1239.11865234375 772.1678466796875 1239.6920166015625 772.1678466796875 L 1239.842041015625 772.1678466796875 C 1240.5286865234375 772.1678466796875 1240.8720703125 772.3045043945312 1240.8720703125 772.5778198242188 C 1240.8720703125 772.6111450195312 1240.8486328125 772.7244873046875 1240.802001953125 772.9178466796875 L 1236.6419677734375 788.6777954101562 C 1236.58203125 788.9378051757812 1236.261962890625 789.0678100585938 1235.6820068359375 789.0678100585938 L 1234.7020263671875 789.0678100585938 C 1234.128662109375 789.0678100585938 1233.8087158203125 788.9378051757812 1233.7420654296875 788.6777954101562 L 1231.1220703125 778.9178466796875 L 1230.6220703125 775.7978515625 L 1230.1220703125 778.9178466796875 L 1227.501953125 788.6777954101562 C 1227.435302734375 788.9378051757812 1227.1153564453125 789.0678100585938 1226.5419921875 789.0678100585938 L 1225.56201171875 789.0678100585938 C 1224.9820556640625 789.0678100585938 1224.6619873046875 788.9378051757812 1224.60205078125 788.6777954101562 L 1220.4920654296875 772.9178466796875 C 1220.4453125 772.7244873046875 1220.4219970703125 772.6111450195312 1220.4219970703125 772.5778198242188 ZM 1248.1024169921875 789.1578369140625 C 1248.1024169921875 789.1578369140625 1247.6524658203125 789.1578369140625 1246.75244140625 789.1578369140625 C 1245.8524169921875 789.1578369140625 1244.92578125 788.614501953125 1243.972412109375 787.52783203125 C 1243.01904296875 786.441162109375 1242.5423583984375 784.8611450195312 1242.5423583984375 782.787841796875 C 1242.5423583984375 780.7144775390625 1243.0224609375 779.1177978515625 1243.982421875 777.997802734375 C 1244.9423828125 776.8778076171875 1246.30908203125 776.3178100585938 1248.0823974609375 776.3178100585938 C 1249.8624267578125 776.3178100585938 1251.2191162109375 776.87451171875 1252.1524658203125 777.98779296875 C 1253.0924072265625 779.1011352539062 1253.5623779296875 780.701171875 1253.5623779296875 782.787841796875 C 1253.5623779296875 784.87451171875 1253.1024169921875 786.4578247070312 1252.182373046875 787.537841796875 C 1251.262451171875 788.6177978515625 1249.9024658203125 789.1578369140625 1248.1024169921875 789.1578369140625 M 1245.472412109375 786.2978515625 C 1245.472412109375 786.2978515625 1245.609130859375 786.48779296875 1245.8824462890625 786.8677978515625 C 1246.1490478515625 787.247802734375 1246.8690185546875 787.4378051757812 1248.0423583984375 787.4378051757812 C 1249.2091064453125 787.4378051757812 1250.0723876953125 787.0578002929688 1250.6324462890625 786.2978515625 C 1251.1923828125 785.537841796875 1251.472412109375 784.3578491210938 1251.472412109375 782.7578125 C 1251.472412109375 781.1578369140625 1251.1923828125 779.9711303710938 1250.6324462890625 779.1978149414062 C 1250.0723876953125 778.43115234375 1249.2091064453125 778.0478515625 1248.0423583984375 778.0478515625 C 1246.8690185546875 778.0478515625 1246.012451171875 778.4277954101562 1245.472412109375 779.1878051757812 C 1244.92578125 779.9478149414062 1244.6524658203125 781.1311645507812 1244.6524658203125 782.73779296875 C 1244.6524658203125 784.3511352539062 1244.92578125 785.537841796875 1245.472412109375 786.2978515625 ZM 1257.0335693359375 788.537841796875 L 1257.0335693359375 780.1177978515625 C 1257.0335693359375 779.1378173828125 1256.9935302734375 778.441162109375 1256.91357421875 778.02783203125 C 1256.8001708984375 777.4478149414062 1256.7435302734375 777.1344604492188 1256.7435302734375 777.0878295898438 C 1256.7435302734375 776.8944702148438 1256.8968505859375 776.7545166015625 1257.2034912109375 776.6678466796875 C 1257.5035400390625 776.5811767578125 1257.740234375 776.537841796875 1257.91357421875 776.537841796875 C 1258.0802001953125 776.537841796875 1258.1934814453125 776.5545043945312 1258.2535400390625 776.5878295898438 C 1258.3201904296875 776.6211547851562 1258.3802490234375 776.671142578125 1258.43359375 776.73779296875 C 1258.4935302734375 776.8111572265625 1258.5401611328125 776.8844604492188 1258.573486328125 776.9578247070312 C 1258.6002197265625 777.0311279296875 1258.6302490234375 777.1278076171875 1258.66357421875 777.247802734375 C 1258.6968994140625 777.3677978515625 1258.7269287109375 777.4644775390625 1258.7535400390625 777.537841796875 C 1258.7735595703125 777.6044921875 1258.796875 777.7078247070312 1258.823486328125 777.8478393554688 C 1258.843505859375 777.9811401367188 1258.863525390625 778.0711669921875 1258.883544921875 778.1177978515625 C 1259.730224609375 776.9178466796875 1260.6568603515625 776.3178100585938 1261.66357421875 776.3178100585938 C 1262.1102294921875 776.3178100585938 1262.4534912109375 776.4078369140625 1262.6934814453125 776.5878295898438 C 1262.93359375 776.7611694335938 1263.0535888671875 776.9844970703125 1263.0535888671875 777.2578125 C 1263.0535888671875 777.5311279296875 1263.0068359375 777.8145141601562 1262.91357421875 778.1078491210938 C 1262.8201904296875 778.4078369140625 1262.7069091796875 778.5578002929688 1262.573486328125 778.5578002929688 C 1262.5135498046875 778.5578002929688 1262.3602294921875 778.5111694335938 1262.113525390625 778.4178466796875 C 1261.8602294921875 778.3311767578125 1261.5634765625 778.287841796875 1261.2235107421875 778.287841796875 C 1260.8768310546875 778.287841796875 1260.5201416015625 778.4111328125 1260.153564453125 778.6578369140625 C 1259.786865234375 778.9111328125 1259.5135498046875 779.1578369140625 1259.33349609375 779.3978271484375 L 1259.0535888671875 779.7578125 L 1259.0535888671875 788.537841796875 C 1259.0535888671875 788.8911743164062 1258.7335205078125 789.0678100585938 1258.093505859375 789.0678100585938 L 1257.9935302734375 789.0678100585938 C 1257.353515625 789.0678100585938 1257.0335693359375 788.8911743164062 1257.0335693359375 788.537841796875 ZM 1265.9144287109375 788.537841796875 L 1265.9144287109375 771.497802734375 C 1265.9144287109375 771.1444702148438 1266.234375 770.9678344726562 1266.8743896484375 770.9678344726562 L 1266.9644775390625 770.9678344726562 C 1267.6043701171875 770.9678344726562 1267.9244384765625 771.1444702148438 1267.9244384765625 771.497802734375 L 1267.9244384765625 782.2278442382812 L 1268.0244140625 782.2278442382812 L 1272.6043701171875 776.7578125 C 1272.784423828125 776.5311279296875 1273.207763671875 776.4178466796875 1273.8743896484375 776.4178466796875 L 1273.974365234375 776.4178466796875 C 1274.534423828125 776.4178466796875 1274.814453125 776.5211791992188 1274.814453125 776.7278442382812 C 1274.814453125 776.87451171875 1274.734375 777.0344848632812 1274.574462890625 777.2078247070312 L 1270.1143798828125 782.48779296875 L 1275.054443359375 788.3478393554688 C 1275.2010498046875 788.5078125 1275.2744140625 788.6344604492188 1275.2744140625 788.7278442382812 C 1275.2744140625 788.9544677734375 1274.921142578125 789.0678100585938 1274.2144775390625 789.0678100585938 L 1274.1143798828125 789.0678100585938 C 1273.427734375 789.0678100585938 1272.997802734375 788.9644775390625 1272.824462890625 788.7578125 L 1268.0244140625 783.0678100585938 L 1267.9244384765625 783.0678100585938 L 1267.9244384765625 788.537841796875 C 1267.9244384765625 788.8911743164062 1267.6043701171875 789.0678100585938 1266.9644775390625 789.0678100585938 L 1266.8743896484375 789.0678100585938 C 1266.234375 789.0678100585938 1265.9144287109375 788.8911743164062 1265.9144287109375 788.537841796875 Z" transform="matrix(0.3252849280834198, 0, 0, 0.3252849280834198, -256.41046142578125, -97.82440185546875)" style="fill: rgb(0, 0, 0); white-space: pre; color: rgb(0, 0, 0);"/></svg>