<?xml version="1.0" encoding="utf-8"?>
<svg id="master-artboard" viewBox="0 0 87.8597640991211 75.9964828491211" version="1.1" xmlns="http://www.w3.org/2000/svg" x="0px" y="0px" width="87.8597640991211px" height="75.9964828491211px" enable-background="new 0 0 2800 2800"><rect id="ee-background" x="0" y="0" width="87.8597640991211" height="75.9964828491211" style="fill: white; fill-opacity: 0; pointer-events: none;"/><defs><linearGradient id="gradient-0" gradientUnits="userSpaceOnUse" x1="652" y1="46" x2="652" y2="146" gradientTransform="matrix(-0.65998485597853, 0.7512787509674184, -1.2578063116257432, -1.1049585772228934, 1181.5217519149091, -312.0235505227846)">
                <stop offset="0" style="stop-color: #1b3a4b"/>
                <stop offset="1" style="stop-color: #000000"/>
              </linearGradient><linearGradient id="gradient-1" gradientUnits="objectBoundingBox" x1="0.5" y1="0" x2="0.5" y2="1" gradientTransform="matrix(-0.8390938016317755, 0.36913710701238356, -0.9272938036720884, -0.9705962233157862, 1.2180902319995703, 0.6626036487563838)">
                <stop offset="0" style="stop-color: #4d194d"/>
                <stop offset="1" style="stop-color: #000000"/>
              </linearGradient><linearGradient id="gradient-2" gradientUnits="userSpaceOnUse" x1="652" y1="46" x2="652" y2="146" gradientTransform="matrix(-0.8471412641253756, 0.5313690900112397, -0.6047984401447366, -0.964207482355937, 1246.583231414772, -168.43112395810329)">
                <stop offset="0" style="stop-color: #006466"/>
                <stop offset="1" style="stop-color: #000000"/>
              </linearGradient><style id="ee-google-fonts">@import url(https://fonts.googleapis.com/css?family=Asap:700,400,400italic,700italic);</style><linearGradient id="gradient-3" gradientUnits="objectBoundingBox" x1="0.5" y1="0" x2="0.5" y2="1" gradientTransform="matrix(0.9925975662340332, -0.08059996139309102, 0.4177748582959324, 2.2661904894333467, -0.17733413049428867, 0.3268102404528229)">
                <stop offset="0" style="stop-color: #4d194d"/>
                <stop offset="1" style="stop-color: #000000"/>
              </linearGradient><linearGradient id="gradient-4" gradientUnits="userSpaceOnUse" x1="2087.6500244140625" y1="0" x2="2087.6500244140625" y2="435" gradientTransform="matrix(0.6886033714905746, 0.7251373676214523, -1.2477055130044714, 1.184845686836234, 678.2299038671254, -1336.9358163679153)">
                <stop offset="0" style="stop-color: #4d194d"/>
                <stop offset="1" style="stop-color: #000000"/>
              </linearGradient><linearGradient id="gradient-17" gradientUnits="objectBoundingBox" x1="0.5" y1="0" x2="0.5" y2="1" gradientTransform="matrix(-0.26822375965112566, 1.5890055042084268, -1.0594116769534594, -0.4865350867255552, 1.0998883222597438, -0.0057338112625175824)">
                <stop offset="0" style="stop-color: #4d194d"/>
                <stop offset="1" style="stop-color: #000000"/>
              </linearGradient><linearGradient id="gradient-14" gradientUnits="objectBoundingBox" x1="0.5" y1="0" x2="0.5" y2="1" gradientTransform="matrix(0.9997621421729352, 0.09345507192784841, -0.012053395293693883, 1.0192696042708753, 0.00011921201851242862, -0.04672753332431545)">
                <stop offset="0" style="stop-color: #006466"/>
                <stop offset="1" style="stop-color: #000000"/>
              </linearGradient><style id="style-1">@import url(https://fonts.googleapis.com/css?family=Assistant:200,300,400,600,700,800);</style></defs>

<linearGradient id="SVGID_2_" gradientUnits="userSpaceOnUse" x1="162.3951" y1="918.1434" x2="1443.8436" y2="2199.592">
			<stop offset="0" style="stop-color:#FFFFFF"/>
			<stop offset="1" style="stop-color:#B3C9D5"/>
		</linearGradient><linearGradient id="SVGID_3_" gradientUnits="userSpaceOnUse" x1="253.4794" y1="1009.2278" x2="1352.7593" y2="2108.5076">
			<stop offset="0" style="stop-color:#852D91"/>
			<stop offset="1" style="stop-color:#312A6C"/>
		</linearGradient><linearGradient id="SVGID_4_" gradientUnits="userSpaceOnUse" x1="252.1891" y1="842.5188" x2="1519.4684" y2="2109.7981">
				<stop offset="0" style="stop-color:#FFFFFF"/>
				<stop offset="1" style="stop-color:#FFFFFF;stop-opacity:0"/>
			</linearGradient><linearGradient id="SVGID_7_" gradientUnits="userSpaceOnUse" x1="1356.1564" y1="918.1434" x2="2637.605" y2="2199.592">
			<stop offset="0" style="stop-color:#FFFFFF"/>
			<stop offset="1" style="stop-color:#B3C9D5"/>
		</linearGradient><g transform="matrix(0.667816162109375, 0, 0, 0.667816162109375, -393.2480633074019, -24.65129265412578)"><g id="g-5" transform="matrix(1, 0, 0, 1, 0, 0)">
	<g id="g-6">
		<path class="st0" d="M652,46c27.6,0,50,22.4,50,50s-22.4,50-50,50s-50-22.4-50-50S624.4,46,652,46z" style="fill: rgb(27, 58, 75); fill-opacity: 0.87;"/>
	</g>
</g></g><g transform="matrix(0.02670961432158947, 0, 0, 0.02670961432158947, -11.717954855558602, 6.788968709857379)"><path opacity="0.7" fill="url(#SVGID_7_)" d="M2463.8,765.6h-933.9c-28.3,0-51.2,22.9-51.2,51.2V2301c0,28.3,22.9,51.2,51.2,51.2&#10;&#9;&#9;&#9;h933.9c28.3,0,51.2-22.9,51.2-51.2V816.7C2515,788.5,2492.1,765.6,2463.8,765.6z M2107.5,826c0,11.8-9.6,21.4-21.4,21.4h-178.3&#10;&#9;&#9;&#9;c-11.8,0-21.4-9.6-21.4-21.4v0c0-11.8,9.6-21.4,21.4-21.4H2086C2097.9,804.6,2107.5,814.2,2107.5,826L2107.5,826z" transform="matrix(0.9999999999999999, 0, 0, 0.9999999999999999, -2.2737367544323206e-13, 0)"/><path d="M 1552.5 904 H 2441.299988 V 2213.800049 H 1552.5 V 904 Z" fill="url(#SVGID_8_)" transform="matrix(0.9999999999999999, 0, 0, 0.9999999999999999, -2.2737367544323206e-13, 0)" style="fill: url('#gradient-1');"/><path fill="url(#SVGID_9_)" d="M2505,816.7c0-22.7-18.5-41.2-41.2-41.2h-933.9c-22.7,0-41.2,18.5-41.2,41.2v1170.4L2505,1245.8&#10;&#9;&#9;&#9;&#9;V816.7z M2086,857.4h-178.3c-17.3,0-31.4-14.1-31.4-31.4s14.1-31.4,31.4-31.4H2086c17.3,0,31.4,14.1,31.4,31.4&#10;&#9;&#9;&#9;&#9;S2103.4,857.4,2086,857.4z" transform="matrix(0.9999999999999999, 0, 0, 0.9999999999999999, -2.2737367544323206e-13, 0)"/><g transform="matrix(13.999999999999998, 0, 0, 13.999999999999998, -7647.591910832998, -100.79528195850972)"><g id="g-1" transform="matrix(0.5175538659095764, 0, 0, 0.5175538659095764, 351.59986305482795, 72.73450647719825)">
	<g id="g-2">
		<path class="st0" d="M652,46c27.6,0,50,22.4,50,50s-22.4,50-50,50s-50-22.4-50-50S624.4,46,652,46z" style="fill: url('#gradient-2');"/>
	</g>
</g></g><path id="XMLID_156_" fill="url(#XMLID_2_)" d="M2173,1666.9c-3.5-23.2-19.1-42.8-40.9-51.4l-70.5-27.8h-64.7h-64.7l-70.5,27.8&#10;&#9;&#9;&#9;&#9;c-21.8,8.6-37.4,28.2-40.9,51.4l-15.2,101.8h191.3h191.3L2173,1666.9z" transform="matrix(0.9999999999999999, 0, 0, 0.9999999999999999, -2.2737367544323206e-13, 0)"/><path d="M 2049.89990234375 1612 L 1996.9000244140625 1663.300048828125 L 1943.800048828125 1612 L 1951.5 1537.9000244140625 L 2042.199951171875 1537.9000244140625 Z" id="XMLID_155_" fill="url(#XMLID_3_)" transform="matrix(0.9999999999999999, 0, 0, 0.9999999999999999, -2.2737367544323206e-13, 0)"/><path d="M 1996.9000244140625 1631.800048828125 L 1948.199951171875 1644.5 L 1966.0999755859375 1768.5999755859375 L 1996.9000244140625 1768.5999755859375 L 2027.699951171875 1768.5999755859375 L 2045.5 1644.5 Z" id="XMLID_154_" fill="url(#XMLID_4_)" transform="matrix(0.9999999999999999, 0, 0, 0.9999999999999999, -2.2737367544323206e-13, 0)"/><path d="M 2027.4000244140625 1636.5 L 1996.9000244140625 1631.800048828125 L 1966.4000244140625 1636.5 L 1983.0999755859375 1659.4000244140625 L 1973.199951171875 1768.5999755859375 L 1996.9000244140625 1768.5999755859375 L 2020.5 1768.5999755859375 L 2010.699951171875 1659.4000244140625 Z" fill="url(#SVGID_11_)" transform="matrix(0.9999999999999999, 0, 0, 0.9999999999999999, -2.2737367544323206e-13, 0)"/><path d="M 1931.5 1585.199951171875 L 1943.800048828125 1663.300048828125 L 1996.9000244140625 1631.800048828125 L 1947.9000244140625 1573.0999755859375 Z" id="XMLID_151_" fill="url(#XMLID_5_)" transform="matrix(0.9999999999999999, 0, 0, 0.9999999999999999, -4.547473508864641e-13, 0)"/><path d="M 2062.300048828125 1585.199951171875 L 2049.89990234375 1663.300048828125 L 1996.9000244140625 1631.800048828125 L 2045.9000244140625 1573.0999755859375 Z" id="XMLID_149_" fill="url(#XMLID_6_)" transform="matrix(0.9999999999999999, 0, 0, 0.9999999999999999, -4.547473508864641e-13, 0)"/><path id="XMLID_147_" fill="url(#XMLID_7_)" d="M2051.5,1418.3c-12.5-19.7-45.4-23-54.6-23.5c-9.2,0.5-42.2,3.8-54.6,23.5&#10;&#9;&#9;&#9;&#9;c-13.3,21-10.7,53.1-5.1,75.8c4.9,20.3,4,48.2,16.4,60.7c21.8,22,28.3,26.7,43.4,26.8c15.1-0.1,21.6-4.8,43.4-26.8&#10;&#9;&#9;&#9;&#9;c12.3-12.5,11.4-40.4,16.4-60.7C2062.2,1471.3,2064.8,1439.2,2051.5,1418.3z" transform="matrix(0.9999999999999999, 0, 0, 0.9999999999999999, -2.2737367544323206e-13, 0)"/><path id="XMLID_146_" fill="url(#XMLID_8_)" d="M2072.4,1485.3c-1.3-11.4-7.6-10.1-14.1-6.1l-5.9,37c11.7,7.3,11.9-7.4,13-11.3&#10;&#9;&#9;&#9;&#9;&#9;C2066.7,1500.7,2073.7,1496.7,2072.4,1485.3z" transform="matrix(0.9999999999999999, 0, 0, 0.9999999999999999, -4.547473508864641e-13, 0)"/><path id="XMLID_145_" fill="url(#XMLID_9_)" d="M1921.4,1485.3c-1.3,11.4,5.7,15.4,6.9,19.6c1.2,3.9,1.3,18.6,13,11.3l-5.9-37&#10;&#9;&#9;&#9;&#9;&#9;C1928.9,1475.2,1922.6,1474,1921.4,1485.3z" transform="matrix(0.9999999999999999, 0, 0, 0.9999999999999999, -4.547473508864641e-13, 0)"/><path fill="url(#SVGID_12_)" d="M2039.4,1384.2c-0.5-0.2-1-0.4-1.5-0.6c-26.4-10-55.6-10-82.1,0c-0.5,0.2-1,0.4-1.5,0.6&#10;&#9;&#9;&#9;&#9;c-22.5,8.5-33.3,46.1-32.9,63.9c0.4,17.8,15.5,46.6,15.5,46.6s-0.8-24.8,4.7-32.7c4.1-5.9,3.2-27.3,11.2-31.3&#10;&#9;&#9;&#9;&#9;c8.9-4.4,26.7-7.2,44-7.8c17.3,0.6,35.1,3.3,44,7.8c8,4,7.1,25.3,11.2,31.3c5.5,7.9,4.7,32.7,4.7,32.7s15.1-28.8,15.5-46.6&#10;&#9;&#9;&#9;&#9;C2072.7,1430.3,2061.8,1392.7,2039.4,1384.2z" transform="matrix(0.9999999999999999, 0, 0, 0.9999999999999999, -2.2737367544323206e-13, 0)"/><g transform="matrix(0.9999999999999999, 0, 0, 0.9999999999999999, -2.2737367544323206e-13, 0)">
			<linearGradient id="SVGID_19_" gradientUnits="userSpaceOnUse" x1="1884.573" y1="556.314" x2="2109.1882" y2="780.9291">
				<stop offset="0" style="stop-color:#FFFFFF"/>
				<stop offset="1" style="stop-color:#B3C9D5"/>
			</linearGradient>
			<path fill="url(#SVGID_19_)" d="M1923.8,521.2V816c0,5.5,4.5,10,10,10H2060c5.5,0,10-4.5,10-10V521.2c0-5.5-4.5-10-10-10h-126.2&#10;&#9;&#9;&#9;&#9;C1928.3,511.2,1923.8,515.7,1923.8,521.2z"/>
			<linearGradient id="SVGID_20_" gradientUnits="userSpaceOnUse" x1="1931.9534" y1="446.31" x2="2061.8079" y2="576.1644">
				<stop offset="0" style="stop-color:#FFFFFF"/>
				<stop offset="1" style="stop-color:#B3C9D5"/>
			</linearGradient>
			<path d="M 1943.300049 435 H 2050.500046 V 587.5 H 1943.300049 V 435 Z" fill="url(#SVGID_20_)"/>
			<g>
				<linearGradient id="SVGID_21_" gradientUnits="userSpaceOnUse" x1="1982.496" y1="534.9804" x2="2011.2653" y2="563.7498">
					<stop offset="0" style="stop-color:#2D404E"/>
					<stop offset="1" style="stop-color:#100C1A"/>
				</linearGradient>
				<path d="M 2017.200024 549.400024 A 20.299999 20.299999 0 0 1 1996.900024 569.700024 A 20.299999 20.299999 0 0 1 1976.600025 549.400024 A 20.299999 20.299999 0 0 1 1996.900024 529.100025 A 20.299999 20.299999 0 0 1 2017.200024 549.400024 Z" fill="url(#SVGID_21_)"/>
				<linearGradient id="SVGID_22_" gradientUnits="userSpaceOnUse" x1="1969.9102" y1="666.6371" x2="2023.8511" y2="720.5781">
					<stop offset="0" style="stop-color:#2D404E"/>
					<stop offset="1" style="stop-color:#100C1A"/>
				</linearGradient>
				<path d="M 2035.000023 693.599976 A 38.099998 38.099998 0 0 1 1996.900024 731.699974 A 38.099998 38.099998 0 0 1 1958.800026 693.599976 A 38.099998 38.099998 0 0 1 1996.900024 655.499977 A 38.099998 38.099998 0 0 1 2035.000023 693.599976 Z" fill="url(#SVGID_22_)"/>
			</g>
		</g><path d="M 1869 0 L 1761.800048828125 0 L 1943.300048828125 435 L 2050.5 435 Z" fill="url(#SVGID_23_)" transform="matrix(0.9999999999999999, 0, 0, 0.9999999999999999, -2.2737367544323206e-13, 0)" style="fill: url('#gradient-3');"/><path d="M 2124.800048828125 0 L 1943.300048828125 435 L 2050.5 435 L 2232 0 Z" fill="url(#SVGID_24_)" transform="matrix(0.9999999999999999, 0, 0, 0.9999999999999999, -2.2737367544323206e-13, 0)" style="fill: url('#gradient-4');"/><g opacity="0.2" transform="matrix(1, 0, 0, 1, 4294.460024105676, 301.0884302746781)">
		
		
		
		
	<path d="M 2167.300048828125 0 L 2026.9000244140625 336.5 L 1886.5 0 L 1779.300048828125 0 L 1973.300048828125 465 L 2080.5 465 L 2274.5 0 Z" style="fill-opacity: 0.61;"/><path d="M2493.8,795.6H2100V551.2c0-5.5-4.5-10-10-10h-9.5V465h-107.2v76.3h-9.5c-5.5,0-10,4.5-10,10v244.3h-393.9&#10;&#9;&#9;&#9;c-28.3,0-51.2,22.9-51.2,51.2V2331c0,28.3,22.9,51.2,51.2,51.2h933.9c28.3,0,51.2-22.9,51.2-51.2V846.7&#10;&#9;&#9;&#9;C2545,818.5,2522.1,795.6,2493.8,795.6z M1963.8,856H2090c5.5,0,10-4.5,10-10v-11.4h16.1c11.8,0,21.4,9.6,21.4,21.4v0&#10;&#9;&#9;&#9;c0,11.8-9.6,21.4-21.4,21.4h-178.3c-11.8,0-21.4-9.6-21.4-21.4v0c0-11.8,9.6-21.4,21.4-21.4h16.1V846&#10;&#9;&#9;&#9;C1953.8,851.5,1958.3,856,1963.8,856z" style="fill-opacity: 0.61;"/></g><path d="M 1901.5836181640625 2126.441162109375 L 1901.5836181640625 2091.1611328125 C 1901.5836181640625 2089.667724609375 1902.330322265625 2088.921142578125 1903.8236083984375 2088.921142578125 L 1922.53369140625 2088.921142578125 C 1923.6536865234375 2088.921142578125 1924.213623046875 2089.8544921875 1924.213623046875 2091.72119140625 L 1924.213623046875 2093.461181640625 C 1924.213623046875 2095.32763671875 1923.6536865234375 2096.260986328125 1922.53369140625 2096.260986328125 L 1910.213623046875 2096.260986328125 L 1910.213623046875 2104.43115234375 L 1922.1436767578125 2104.43115234375 C 1923.263671875 2104.43115234375 1923.8236083984375 2105.364501953125 1923.8236083984375 2107.231201171875 L 1923.8236083984375 2108.97119140625 C 1923.8236083984375 2110.837646484375 1923.263671875 2111.77099609375 1922.1436767578125 2111.77099609375 L 1910.213623046875 2111.77099609375 L 1910.213623046875 2126.441162109375 C 1910.213623046875 2127.634521484375 1909.0936279296875 2128.231201171875 1906.8536376953125 2128.231201171875 L 1904.943603515625 2128.231201171875 C 1902.70361328125 2128.231201171875 1901.5836181640625 2127.634521484375 1901.5836181640625 2126.441162109375 ZM 1929.746337890625 2125.881103515625 L 1929.746337890625 2090.60107421875 C 1929.746337890625 2089.40771484375 1930.8663330078125 2088.81103515625 1933.1063232421875 2088.81103515625 L 1935.016357421875 2088.81103515625 C 1937.25634765625 2088.81103515625 1938.3763427734375 2089.40771484375 1938.3763427734375 2090.60107421875 L 1938.3763427734375 2120.781005859375 L 1950.8663330078125 2120.781005859375 C 1951.986328125 2120.781005859375 1952.54638671875 2121.71435546875 1952.54638671875 2123.5810546875 L 1952.54638671875 2125.321044921875 C 1952.54638671875 2127.187744140625 1951.986328125 2128.12109375 1950.8663330078125 2128.12109375 L 1931.986328125 2128.12109375 C 1930.4930419921875 2128.12109375 1929.746337890625 2127.37451171875 1929.746337890625 2125.881103515625 ZM 1952.9852294921875 2127.0009765625 C 1952.9852294921875 2126.8544921875 1953.05859375 2126.517822265625 1953.2052001953125 2125.9912109375 L 1965.5252685546875 2089.981201171875 C 1965.8251953125 2089.201171875 1966.891845703125 2088.81103515625 1968.7252197265625 2088.81103515625 L 1971.63525390625 2088.81103515625 C 1973.4619140625 2088.81103515625 1974.5252685546875 2089.201171875 1974.8251953125 2089.981201171875 L 1987.145263671875 2125.9912109375 C 1987.258544921875 2126.364501953125 1987.315185546875 2126.701171875 1987.315185546875 2127.0009765625 C 1987.315185546875 2127.821044921875 1986.3818359375 2128.231201171875 1984.5152587890625 2128.231201171875 L 1982.0452880859375 2128.231201171875 C 1980.218505859375 2128.231201171875 1979.1751708984375 2127.841064453125 1978.915283203125 2127.06103515625 L 1976.6751708984375 2120.22119140625 L 1963.4552001953125 2120.22119140625 L 1961.2152099609375 2127.06103515625 C 1960.9552001953125 2127.841064453125 1960.0985107421875 2128.231201171875 1958.645263671875 2128.231201171875 L 1956.4052734375 2128.231201171875 C 1954.125244140625 2128.231201171875 1952.9852294921875 2127.821044921875 1952.9852294921875 2127.0009765625 M 1965.865234375 2112.8310546875 L 1974.2652587890625 2112.8310546875 L 1971.0751953125 2102.861083984375 L 1970.2352294921875 2099.281005859375 L 1970.0052490234375 2099.281005859375 C 1969.671875 2101.034423828125 1969.391845703125 2102.227783203125 1969.165283203125 2102.861083984375 L 1965.865234375 2112.8310546875 ZM 1991.1668701171875 2126.441162109375 L 1991.1668701171875 2090.60107421875 C 1991.1668701171875 2089.40771484375 1992.286865234375 2088.81103515625 1994.52685546875 2088.81103515625 L 1996.9368896484375 2088.81103515625 C 1998.730224609375 2088.81103515625 1999.9635009765625 2089.314453125 2000.6368408203125 2090.321044921875 L 2015.366943359375 2113.0009765625 L 2015.366943359375 2090.60107421875 C 2015.366943359375 2089.40771484375 2016.4869384765625 2088.81103515625 2018.7269287109375 2088.81103515625 L 2020.346923828125 2088.81103515625 C 2022.5869140625 2088.81103515625 2023.7069091796875 2089.40771484375 2023.7069091796875 2090.60107421875 L 2023.7069091796875 2126.441162109375 C 2023.7069091796875 2127.634521484375 2022.5869140625 2128.231201171875 2020.346923828125 2128.231201171875 L 2018.2169189453125 2128.231201171875 C 2016.423583984375 2128.231201171875 2015.193603515625 2127.727783203125 2014.52685546875 2126.72119140625 L 1999.516845703125 2103.760986328125 L 1999.516845703125 2126.441162109375 C 1999.516845703125 2127.634521484375 1998.3968505859375 2128.231201171875 1996.1568603515625 2128.231201171875 L 1994.52685546875 2128.231201171875 C 1992.286865234375 2128.231201171875 1991.1668701171875 2127.634521484375 1991.1668701171875 2126.441162109375 ZM 2030.0833740234375 2108.4111328125 C 2030.0833740234375 2095.11767578125 2036.316650390625 2088.47119140625 2048.783447265625 2088.47119140625 C 2051.510009765625 2088.47119140625 2054.143310546875 2088.844482421875 2056.683349609375 2089.591064453125 C 2059.223388671875 2090.337646484375 2060.493408203125 2091.27099609375 2060.493408203125 2092.39111328125 C 2060.493408203125 2093.211181640625 2060.053466796875 2094.29443359375 2059.17333984375 2095.64111328125 C 2058.300048828125 2096.98779296875 2057.526611328125 2097.6611328125 2056.853271484375 2097.6611328125 C 2056.739990234375 2097.6611328125 2056.3466796875 2097.510986328125 2055.67333984375 2097.211181640625 C 2053.7333984375 2096.31103515625 2051.38330078125 2095.861083984375 2048.623291015625 2095.861083984375 C 2042.163330078125 2095.861083984375 2038.933349609375 2100.091064453125 2038.933349609375 2108.551025390625 C 2038.933349609375 2117.00439453125 2042.1234130859375 2121.231201171875 2048.50341796875 2121.231201171875 C 2051.19677734375 2121.231201171875 2053.7734375 2120.671142578125 2056.2333984375 2119.551025390625 C 2057.053466796875 2119.177734375 2057.5400390625 2118.9912109375 2057.693359375 2118.9912109375 C 2058.473388671875 2118.9912109375 2059.219970703125 2119.634521484375 2059.933349609375 2120.921142578125 C 2060.64013671875 2122.21435546875 2060.993408203125 2123.1943359375 2060.993408203125 2123.861083984375 C 2060.993408203125 2125.3544921875 2059.61328125 2126.514404296875 2056.853271484375 2127.341064453125 C 2054.086669921875 2128.1611328125 2051.303466796875 2128.571044921875 2048.50341796875 2128.571044921875 C 2042.2366943359375 2128.571044921875 2037.5999755859375 2126.937744140625 2034.5933837890625 2123.671142578125 C 2031.586669921875 2120.404541015625 2030.0833740234375 2115.31787109375 2030.0833740234375 2108.4111328125 ZM 2066.080810546875 2125.881103515625 L 2066.080810546875 2091.1611328125 C 2066.080810546875 2089.667724609375 2066.827392578125 2088.921142578125 2068.32080078125 2088.921142578125 L 2088.82080078125 2088.921142578125 C 2089.940673828125 2088.921142578125 2090.500732421875 2089.8544921875 2090.500732421875 2091.72119140625 L 2090.500732421875 2093.461181640625 C 2090.500732421875 2095.32763671875 2089.940673828125 2096.260986328125 2088.82080078125 2096.260986328125 L 2074.710693359375 2096.260986328125 L 2074.710693359375 2104.381103515625 L 2087.310791015625 2104.381103515625 C 2088.4306640625 2104.381103515625 2088.99072265625 2105.314453125 2088.99072265625 2107.18115234375 L 2088.99072265625 2108.9111328125 C 2088.99072265625 2110.77783203125 2088.4306640625 2111.711181640625 2087.310791015625 2111.711181640625 L 2074.710693359375 2111.711181640625 L 2074.710693359375 2120.781005859375 L 2088.880615234375 2120.781005859375 C 2090.000732421875 2120.781005859375 2090.560791015625 2121.71435546875 2090.560791015625 2123.5810546875 L 2090.560791015625 2125.321044921875 C 2090.560791015625 2127.187744140625 2090.000732421875 2128.12109375 2088.880615234375 2128.12109375 L 2068.32080078125 2128.12109375 C 2066.827392578125 2128.12109375 2066.080810546875 2127.37451171875 2066.080810546875 2125.881103515625 ZM 2096.651123046875 2126.441162109375 L 2096.651123046875 2091.1611328125 C 2096.651123046875 2089.667724609375 2097.397705078125 2088.921142578125 2098.89111328125 2088.921142578125 L 2109.81103515625 2088.921142578125 C 2119.111083984375 2088.921142578125 2123.760986328125 2092.43115234375 2123.760986328125 2099.451171875 C 2123.760986328125 2101.537841796875 2123.1708984375 2103.357666015625 2121.990966796875 2104.9111328125 C 2120.817626953125 2106.457763671875 2119.224365234375 2107.6044921875 2117.2109375 2108.35107421875 L 2117.2109375 2108.5810546875 C 2117.917724609375 2108.841064453125 2118.644287109375 2109.46435546875 2119.39111328125 2110.451171875 C 2120.1376953125 2111.4443359375 2120.75439453125 2112.537841796875 2121.240966796875 2113.731201171875 L 2126.1708984375 2126.051025390625 C 2126.357666015625 2126.537841796875 2126.450927734375 2126.89111328125 2126.450927734375 2127.111083984375 C 2126.450927734375 2127.857666015625 2125.3310546875 2128.231201171875 2123.091064453125 2128.231201171875 L 2120.791015625 2128.231201171875 C 2118.92431640625 2128.231201171875 2117.841064453125 2127.841064453125 2117.541015625 2127.06103515625 L 2113.12109375 2116.14111328125 C 2112.48779296875 2114.90771484375 2111.804443359375 2114.037841796875 2111.071044921875 2113.531005859375 C 2110.34423828125 2113.031005859375 2109.14111328125 2112.781005859375 2107.4609375 2112.781005859375 L 2105.281005859375 2112.781005859375 L 2105.281005859375 2126.441162109375 C 2105.281005859375 2127.634521484375 2104.1611328125 2128.231201171875 2101.9208984375 2128.231201171875 L 2100.010986328125 2128.231201171875 C 2097.77099609375 2128.231201171875 2096.651123046875 2127.634521484375 2096.651123046875 2126.441162109375 M 2105.281005859375 2105.3310546875 L 2110.60107421875 2105.3310546875 C 2111.75439453125 2105.3310546875 2112.760986328125 2104.864501953125 2113.62109375 2103.93115234375 C 2114.48095703125 2102.997802734375 2114.9111328125 2101.86767578125 2114.9111328125 2100.541015625 C 2114.9111328125 2099.21435546875 2114.490966796875 2098.167724609375 2113.651123046875 2097.401123046875 C 2112.81103515625 2096.64111328125 2111.664306640625 2096.260986328125 2110.2109375 2096.260986328125 L 2105.281005859375 2096.260986328125 L 2105.281005859375 2105.3310546875 ZM 2144.242431640625 2126.441162109375 L 2144.242431640625 2090.60107421875 C 2144.242431640625 2089.40771484375 2145.3623046875 2088.81103515625 2147.602294921875 2088.81103515625 L 2150.572265625 2088.81103515625 C 2152.36572265625 2088.81103515625 2153.542236328125 2089.314453125 2154.102294921875 2090.321044921875 L 2163.96240234375 2107.85107421875 L 2173.92236328125 2090.321044921875 C 2174.482421875 2089.314453125 2175.658935546875 2088.81103515625 2177.452392578125 2088.81103515625 L 2180.3623046875 2088.81103515625 C 2182.602294921875 2088.81103515625 2183.722412109375 2089.40771484375 2183.722412109375 2090.60107421875 L 2183.722412109375 2126.441162109375 C 2183.722412109375 2127.634521484375 2182.602294921875 2128.231201171875 2180.3623046875 2128.231201171875 L 2178.742431640625 2128.231201171875 C 2176.50244140625 2128.231201171875 2175.38232421875 2127.634521484375 2175.38232421875 2126.441162109375 L 2175.38232421875 2103.260986328125 L 2175.162353515625 2103.201171875 L 2167.042236328125 2117.701171875 C 2166.515625 2118.414306640625 2165.76904296875 2118.77099609375 2164.80224609375 2118.77099609375 L 2163.17236328125 2118.77099609375 C 2162.20556640625 2118.77099609375 2161.458984375 2118.414306640625 2160.932373046875 2117.701171875 L 2152.812255859375 2103.201171875 L 2152.59228515625 2103.260986328125 L 2152.59228515625 2126.441162109375 C 2152.59228515625 2127.634521484375 2151.472412109375 2128.231201171875 2149.232421875 2128.231201171875 L 2147.602294921875 2128.231201171875 C 2145.3623046875 2128.231201171875 2144.242431640625 2127.634521484375 2144.242431640625 2126.441162109375 ZM 2204.551513671875 2128.571044921875 C 2199.624755859375 2128.571044921875 2195.954833984375 2127.25439453125 2193.54150390625 2124.62109375 C 2191.134765625 2121.98779296875 2189.931640625 2118.187744140625 2189.931640625 2113.22119140625 C 2189.931640625 2108.260986328125 2191.134765625 2104.5478515625 2193.54150390625 2102.0810546875 C 2195.954833984375 2099.614501953125 2199.261474609375 2098.381103515625 2203.46142578125 2098.381103515625 C 2207.66162109375 2098.381103515625 2210.741455078125 2099.727783203125 2212.70166015625 2102.421142578125 C 2214.66162109375 2105.107666015625 2215.6416015625 2108.577880859375 2215.6416015625 2112.8310546875 C 2215.6416015625 2113.27783203125 2215.25830078125 2113.941162109375 2214.491455078125 2114.821044921875 C 2213.724853515625 2115.701171875 2213.15478515625 2116.14111328125 2212.781494140625 2116.14111328125 L 2198.50146484375 2116.14111328125 C 2198.688232421875 2118.267822265625 2199.321533203125 2119.77783203125 2200.401611328125 2120.671142578125 C 2201.48828125 2121.571044921875 2202.87158203125 2122.02099609375 2204.551513671875 2122.02099609375 C 2206.2314453125 2122.02099609375 2207.8349609375 2121.731201171875 2209.361572265625 2121.151123046875 C 2210.894775390625 2120.571044921875 2211.681640625 2120.281005859375 2211.721435546875 2120.281005859375 C 2212.281494140625 2120.281005859375 2212.90478515625 2120.8310546875 2213.591552734375 2121.93115234375 C 2214.284912109375 2123.031005859375 2214.631591796875 2123.901123046875 2214.631591796875 2124.541015625 C 2214.631591796875 2125.767822265625 2213.46484375 2126.747802734375 2211.131591796875 2127.481201171875 C 2208.798095703125 2128.207763671875 2206.60498046875 2128.571044921875 2204.551513671875 2128.571044921875 M 2207.571533203125 2110.591064453125 C 2207.571533203125 2108.877685546875 2207.23486328125 2107.5078125 2206.5615234375 2106.481201171875 C 2205.894775390625 2105.454345703125 2204.88818359375 2104.941162109375 2203.54150390625 2104.941162109375 C 2200.781494140625 2104.941162109375 2199.1015625 2106.824462890625 2198.50146484375 2110.591064453125 L 2207.571533203125 2110.591064453125 ZM 2221.229736328125 2126.441162109375 L 2221.229736328125 2108.691162109375 C 2221.229736328125 2105.89111328125 2221.119873046875 2103.93115234375 2220.899658203125 2102.81103515625 C 2220.673095703125 2101.691162109375 2220.559814453125 2101.017822265625 2220.559814453125 2100.791015625 C 2220.559814453125 2100.19775390625 2221.31640625 2099.7509765625 2222.829833984375 2099.451171875 C 2224.343017578125 2099.151123046875 2225.47314453125 2099.0009765625 2226.2197265625 2099.0009765625 C 2226.966552734375 2099.0009765625 2227.459716796875 2099.074462890625 2227.69970703125 2099.22119140625 C 2227.939697265625 2099.37451171875 2228.136474609375 2099.607666015625 2228.289794921875 2099.921142578125 C 2228.4365234375 2100.2412109375 2228.54638671875 2100.50439453125 2228.619873046875 2100.711181640625 C 2228.69970703125 2100.917724609375 2228.786376953125 2101.260986328125 2228.8798828125 2101.7412109375 C 2228.97314453125 2102.227783203125 2229.036376953125 2102.52783203125 2229.06982421875 2102.64111328125 C 2229.9697265625 2101.44775390625 2231.156494140625 2100.441162109375 2232.6298828125 2099.62109375 C 2234.10302734375 2098.79443359375 2235.6796875 2098.381103515625 2237.35986328125 2098.381103515625 C 2241.20654296875 2098.381103515625 2243.669677734375 2099.801025390625 2244.749755859375 2102.64111328125 C 2245.68310546875 2101.44775390625 2246.91650390625 2100.441162109375 2248.44970703125 2099.62109375 C 2249.976318359375 2098.79443359375 2251.619873046875 2098.381103515625 2253.3798828125 2098.381103515625 C 2256.1796875 2098.381103515625 2258.23974609375 2099.12109375 2259.559814453125 2100.60107421875 C 2260.886474609375 2102.074462890625 2261.5498046875 2104.361083984375 2261.5498046875 2107.461181640625 L 2261.5498046875 2126.441162109375 C 2261.5498046875 2127.634521484375 2260.4296875 2128.231201171875 2258.189697265625 2128.231201171875 L 2256.619873046875 2128.231201171875 C 2254.3798828125 2128.231201171875 2253.259765625 2127.634521484375 2253.259765625 2126.441162109375 L 2253.259765625 2108.691162109375 C 2253.259765625 2106.377685546875 2252.15966796875 2105.22119140625 2249.959716796875 2105.22119140625 C 2248.133056640625 2105.22119140625 2246.65966796875 2106.301025390625 2245.539794921875 2108.461181640625 L 2245.539794921875 2126.441162109375 C 2245.539794921875 2127.634521484375 2244.419677734375 2128.231201171875 2242.1796875 2128.231201171875 L 2240.60986328125 2128.231201171875 C 2238.369873046875 2128.231201171875 2237.249755859375 2127.634521484375 2237.249755859375 2126.441162109375 L 2237.249755859375 2108.691162109375 C 2237.249755859375 2106.377685546875 2236.146484375 2105.22119140625 2233.939697265625 2105.22119140625 C 2232.113037109375 2105.22119140625 2230.6396484375 2106.301025390625 2229.519775390625 2108.461181640625 L 2229.519775390625 2126.441162109375 C 2229.519775390625 2127.634521484375 2228.399658203125 2128.231201171875 2226.15966796875 2128.231201171875 L 2224.58984375 2128.231201171875 C 2222.349853515625 2128.231201171875 2221.229736328125 2127.634521484375 2221.229736328125 2126.441162109375 ZM 2282.208984375 2128.571044921875 C 2277.2822265625 2128.571044921875 2273.6123046875 2127.25439453125 2271.198974609375 2124.62109375 C 2268.792236328125 2121.98779296875 2267.589111328125 2118.187744140625 2267.589111328125 2113.22119140625 C 2267.589111328125 2108.260986328125 2268.792236328125 2104.5478515625 2271.198974609375 2102.0810546875 C 2273.6123046875 2099.614501953125 2276.9189453125 2098.381103515625 2281.118896484375 2098.381103515625 C 2285.319091796875 2098.381103515625 2288.39892578125 2099.727783203125 2290.359130859375 2102.421142578125 C 2292.319091796875 2105.107666015625 2293.299072265625 2108.577880859375 2293.299072265625 2112.8310546875 C 2293.299072265625 2113.27783203125 2292.915771484375 2113.941162109375 2292.14892578125 2114.821044921875 C 2291.38232421875 2115.701171875 2290.812255859375 2116.14111328125 2290.43896484375 2116.14111328125 L 2276.158935546875 2116.14111328125 C 2276.345703125 2118.267822265625 2276.97900390625 2119.77783203125 2278.05908203125 2120.671142578125 C 2279.145751953125 2121.571044921875 2280.529052734375 2122.02099609375 2282.208984375 2122.02099609375 C 2283.888916015625 2122.02099609375 2285.492431640625 2121.731201171875 2287.01904296875 2121.151123046875 C 2288.55224609375 2120.571044921875 2289.339111328125 2120.281005859375 2289.37890625 2120.281005859375 C 2289.93896484375 2120.281005859375 2290.562255859375 2120.8310546875 2291.2490234375 2121.93115234375 C 2291.9423828125 2123.031005859375 2292.2890625 2123.901123046875 2292.2890625 2124.541015625 C 2292.2890625 2125.767822265625 2291.122314453125 2126.747802734375 2288.7890625 2127.481201171875 C 2286.45556640625 2128.207763671875 2284.262451171875 2128.571044921875 2282.208984375 2128.571044921875 M 2285.22900390625 2110.591064453125 C 2285.22900390625 2108.877685546875 2284.892333984375 2107.5078125 2284.218994140625 2106.481201171875 C 2283.55224609375 2105.454345703125 2282.545654296875 2104.941162109375 2281.198974609375 2104.941162109375 C 2278.43896484375 2104.941162109375 2276.759033203125 2106.824462890625 2276.158935546875 2110.591064453125 L 2285.22900390625 2110.591064453125 ZM 2299.1171875 2126.441162109375 L 2299.1171875 2087.691162109375 C 2299.1171875 2086.497802734375 2300.2373046875 2085.901123046875 2302.477294921875 2085.901123046875 L 2304.037353515625 2085.901123046875 C 2306.27734375 2085.901123046875 2307.397216796875 2086.497802734375 2307.397216796875 2087.691162109375 L 2307.397216796875 2100.12109375 C 2309.00390625 2098.961181640625 2310.91064453125 2098.381103515625 2313.1171875 2098.381103515625 C 2316.8505859375 2098.381103515625 2319.75048828125 2099.734375 2321.817138671875 2102.441162109375 C 2323.890625 2105.147705078125 2324.92724609375 2108.844482421875 2324.92724609375 2113.531005859375 C 2324.92724609375 2118.2177734375 2323.957275390625 2121.89453125 2322.017333984375 2124.56103515625 C 2320.0771484375 2127.234375 2317.55712890625 2128.571044921875 2314.457275390625 2128.571044921875 C 2312.77734375 2128.571044921875 2311.27392578125 2128.177734375 2309.947265625 2127.39111328125 C 2308.62060546875 2126.611083984375 2307.6240234375 2125.6044921875 2306.957275390625 2124.37109375 L 2306.397216796875 2126.781005859375 C 2306.170654296875 2127.747802734375 2305.087158203125 2128.231201171875 2303.147216796875 2128.231201171875 L 2302.477294921875 2128.231201171875 C 2300.2373046875 2128.231201171875 2299.1171875 2127.634521484375 2299.1171875 2126.441162109375 M 2311.997314453125 2121.791015625 C 2315.017333984375 2121.791015625 2316.52734375 2118.981201171875 2316.52734375 2113.361083984375 C 2316.52734375 2107.747802734375 2314.79052734375 2104.941162109375 2311.317138671875 2104.941162109375 C 2309.977294921875 2104.941162109375 2308.670654296875 2105.29443359375 2307.397216796875 2106.0009765625 L 2307.397216796875 2118.4912109375 C 2308.670654296875 2120.691162109375 2310.203857421875 2121.791015625 2311.997314453125 2121.791015625 ZM 2330.745361328125 2126.441162109375 L 2330.745361328125 2108.691162109375 C 2330.745361328125 2105.89111328125 2330.635498046875 2103.93115234375 2330.415283203125 2102.81103515625 C 2330.188720703125 2101.691162109375 2330.075439453125 2101.017822265625 2330.075439453125 2100.791015625 C 2330.075439453125 2100.19775390625 2330.83203125 2099.7509765625 2332.345458984375 2099.451171875 C 2333.858642578125 2099.151123046875 2334.98876953125 2099.0009765625 2335.7353515625 2099.0009765625 C 2336.482177734375 2099.0009765625 2336.975341796875 2099.074462890625 2337.21533203125 2099.22119140625 C 2337.455322265625 2099.37451171875 2337.652099609375 2099.607666015625 2337.805419921875 2099.921142578125 C 2337.9521484375 2100.2412109375 2338.06201171875 2100.50439453125 2338.135498046875 2100.711181640625 C 2338.21533203125 2100.917724609375 2338.302001953125 2101.260986328125 2338.3955078125 2101.7412109375 C 2338.48876953125 2102.227783203125 2338.552001953125 2102.52783203125 2338.58544921875 2102.64111328125 C 2340.152099609375 2099.801025390625 2342.188720703125 2098.381103515625 2344.6953125 2098.381103515625 C 2345.888671875 2098.381103515625 2346.71875 2098.691162109375 2347.185302734375 2099.31103515625 C 2347.652099609375 2099.92431640625 2347.885498046875 2100.62451171875 2347.885498046875 2101.4111328125 C 2347.885498046875 2102.191162109375 2347.71533203125 2103.171142578125 2347.37548828125 2104.35107421875 C 2347.0419921875 2105.5244140625 2346.632080078125 2106.111083984375 2346.1455078125 2106.111083984375 C 2345.92529296875 2106.111083984375 2345.535400390625 2106.037841796875 2344.975341796875 2105.89111328125 C 2344.415283203125 2105.73779296875 2343.9287109375 2105.6611328125 2343.515380859375 2105.6611328125 C 2341.648681640625 2105.6611328125 2340.1552734375 2106.594482421875 2339.035400390625 2108.461181640625 L 2339.035400390625 2126.441162109375 C 2339.035400390625 2127.634521484375 2337.915283203125 2128.231201171875 2335.67529296875 2128.231201171875 L 2334.10546875 2128.231201171875 C 2331.865478515625 2128.231201171875 2330.745361328125 2127.634521484375 2330.745361328125 2126.441162109375 Z" transform="matrix(1.2260923385620117, 0, 0, 1.2260923385620117, -609.97705078125, -436.9786071777344)" style="fill: rgb(250, 250, 250); white-space: pre; color: rgb(250, 250, 250);"/><g transform="matrix(0.5643586239873618, 0, 0, 0.5643586239873618, 1307.9165966840917, 353.2259438902693)"><g transform="matrix(0.5456334948539734, -0.8380242586135863, 0.8380242586135863, 0.5456334948539734, -527.2714311968003, 1848.0516632803028)">
		<linearGradient id="SVGID_1_" gradientUnits="userSpaceOnUse" x1="1216.7559" y1="552.3892" x2="1216.7559" y2="862.516">
			<stop offset="0" style="stop-color:#F1910D"/>
			<stop offset="1" style="stop-color:#D41055"/>
		</linearGradient>
		<path fill="url(#SVGID_1_)" d="M1325.063,745.598c4.263,0,7.753-3.489,7.753-7.754V630.46c0-4.265-3.49-7.753-7.753-7.753h-3.446&#10;&#9;&#9;&#9;c-4.265,0-7.753,3.488-7.753,7.753v88.433c0,4.264-3.49,7.753-7.753,7.753h-144.732c-4.265,0-9.896-2.754-12.516-6.118&#10;&#9;&#9;&#9;c0,0-9.124-11.72-20.853-11.72c-15.061,0-27.314,12.253-27.314,27.313c0,15.06,12.254,27.312,27.314,27.312&#10;&#9;&#9;&#9;c11.729,0,20.852-11.718,20.852-11.718c2.62-3.365,8.252-6.117,12.516-6.117H1325.063z M1128.01,744.481&#10;&#9;&#9;&#9;c-4.611,0-8.362-3.75-8.362-8.359c0-4.61,3.751-8.361,8.362-8.361c4.609,0,8.359,3.751,8.359,8.361&#10;&#9;&#9;&#9;C1136.369,740.731,1132.619,744.481,1128.01,744.481z" style="fill: url('#gradient-17');"/>
	</g><path fill="url(#SVGID_2_)" d="M1321.616,764.55c-4.265,0-7.753,3.488-7.753,7.753v5.284c0,4.265-3.021,9.499-6.715,11.63&#10;&#9;&#9;&#9;l-130.434,75.306c-3.693,2.132-9.736,2.132-13.43,0l-43.607-25.176c-3.693-2.132-10.203-3.877-14.467-3.877h-22.398&#10;&#9;&#9;&#9;c-4.264,0-4.731,1.745-1.039,3.877l81.512,47.061c3.693,2.132,9.736,2.132,13.43,0l149.386-86.249&#10;&#9;&#9;&#9;c3.692-2.132,6.715-7.365,6.715-11.629v-16.227c0-4.265-3.49-7.753-7.753-7.753H1321.616z" transform="matrix(0.5456334948539734, -0.8380242586135863, 0.8380242586135863, 0.5456334948539734, -527.2714311968003, 1848.0516632803028)" style="fill: rgb(0, 100, 102);"/><path fill="url(#SVGID_3_)" d="M1150.104,816.519c4.264,0,9.896,2.753,12.516,6.118c0,0,9.123,11.718,20.853,11.718&#10;&#9;&#9;&#9;c15.061,0,27.313-12.252,27.313-27.312c0-15.061-12.252-27.313-27.313-27.313c-11.73,0-20.853,11.719-20.853,11.719&#10;&#9;&#9;&#9;c-2.619,3.364-8.252,6.117-12.516,6.117h-95.039c-4.264,0-10.773-1.744-14.467-3.876l-7.746-4.473&#10;&#9;&#9;&#9;c-3.693-2.132-6.715-7.365-6.715-11.63v-76.206c0-4.264-3.488-7.753-7.753-7.753h-3.446c-4.264,0-7.752,3.489-7.752,7.753v87.149&#10;&#9;&#9;&#9;c0,4.264,3.021,9.497,6.713,11.629l21.621,12.482c3.693,2.132,10.203,3.877,14.469,3.877H1150.104z M1183.472,798.683&#10;&#9;&#9;&#9;c4.61,0,8.36,3.75,8.36,8.36c0,4.609-3.75,8.359-8.36,8.359c-4.609,0-8.36-3.75-8.36-8.359&#10;&#9;&#9;&#9;C1175.111,802.433,1178.862,798.683,1183.472,798.683z" transform="matrix(0.5456334948539734, -0.8380242586135863, 0.8380242586135863, 0.5456334948539734, -527.2714311968003, 1848.0516632803028)" style="fill: rgb(0, 100, 102);"/><path fill="url(#SVGID_4_)" d="M1178.623,674.676c4.264,0,9.896,2.754,12.516,6.118c0,0,9.123,11.718,20.853,11.718&#10;&#9;&#9;&#9;c15.06,0,27.313-12.252,27.313-27.312c0-15.061-12.253-27.313-27.313-27.313c-11.73,0-20.854,11.719-20.854,11.719&#10;&#9;&#9;&#9;c-2.619,3.365-8.251,6.119-12.515,6.119h-144.732c-4.266,0-7.754-3.489-7.754-7.754v-20.996c0-4.264,3.021-9.498,6.715-11.629&#10;&#9;&#9;&#9;l130.434-75.307c3.693-2.133,9.736-2.133,13.43,0l70.819,40.887c3.692,2.133,3.226,3.877-1.04,3.877h-60.963&#10;&#9;&#9;&#9;c-4.264,0-9.896-2.753-12.516-6.117c0,0-9.123-11.719-20.854-11.719c-15.06,0-27.313,12.252-27.313,27.313&#10;&#9;&#9;&#9;s12.253,27.313,27.313,27.313c11.73,0,20.854-11.719,20.854-11.719c2.62-3.365,8.252-6.118,12.516-6.118h131.693&#10;&#9;&#9;&#9;c4.264,0,4.731-1.744,1.038-3.876l-141.548-81.725c-3.693-2.132-9.736-2.132-13.43,0L1013.9,604.404&#10;&#9;&#9;&#9;c-3.693,2.132-6.715,7.365-6.715,11.63v50.89c0,4.265,3.488,7.753,7.752,7.753H1178.623z M1211.991,656.84&#10;&#9;&#9;&#9;c4.61,0,8.36,3.75,8.36,8.36c0,4.609-3.75,8.359-8.36,8.359s-8.36-3.75-8.36-8.359&#10;&#9;&#9;&#9;C1203.631,660.59,1207.381,656.84,1211.991,656.84z M1152.162,602.64c-4.609,0-8.359-3.751-8.359-8.36&#10;&#9;&#9;&#9;c0-4.61,3.75-8.36,8.359-8.36c4.611,0,8.361,3.75,8.361,8.36C1160.523,598.889,1156.773,602.64,1152.162,602.64z" transform="matrix(0.5456334948539734, -0.8380242586135863, 0.8380242586135863, 0.5456334948539734, -527.2714311968003, 1848.0516632803028)" style="fill: rgb(0, 100, 102);"/></g></g><linearGradient id="SVGID_8_" gradientUnits="userSpaceOnUse" x1="1447.2407" y1="1009.2278" x2="2546.5205" y2="2108.5076">
			<stop offset="0" style="stop-color:#852D91"/>
			<stop offset="1" style="stop-color:#312A6C"/>
		</linearGradient><linearGradient id="SVGID_9_" gradientUnits="userSpaceOnUse" x1="1445.9503" y1="842.5188" x2="2713.2295" y2="2109.7981">
				<stop offset="0" style="stop-color:#FFFFFF"/>
				<stop offset="1" style="stop-color:#FFFFFF;stop-opacity:0"/>
			</linearGradient><linearGradient id="SVGID_10_" gradientUnits="userSpaceOnUse" x1="1762.5388" y1="1272.2332" x2="2231.2283" y2="1740.9226">
			<stop offset="0" style="stop-color:#FFFFFF"/>
			<stop offset="1" style="stop-color:#00B3FF"/>
		</linearGradient><linearGradient id="XMLID_2_" gradientUnits="userSpaceOnUse" x1="1875.0492" y1="1594.4055" x2="2118.7173" y2="1838.0737">
				<stop offset="0" style="stop-color:#2D404E"/>
				<stop offset="1" style="stop-color:#100C1A"/>
			</linearGradient><linearGradient id="XMLID_3_" gradientUnits="userSpaceOnUse" x1="1953.74" y1="1535.6541" x2="2040.0266" y2="1621.9407">
				<stop offset="0" style="stop-color:#FFDFB4"/>
				<stop offset="0.2129" style="stop-color:#FEDAB0"/>
				<stop offset="0.4519" style="stop-color:#FDCDA5"/>
				<stop offset="0.7034" style="stop-color:#FAB693"/>
				<stop offset="0.9622" style="stop-color:#F79779"/>
				<stop offset="1" style="stop-color:#F69275"/>
			</linearGradient><linearGradient id="XMLID_4_" gradientUnits="userSpaceOnUse" x1="1945.9933" y1="1646.7637" x2="2047.7733" y2="1748.5437">
				<stop offset="0" style="stop-color:#FFFFFF"/>
				<stop offset="1" style="stop-color:#95CDF5"/>
			</linearGradient><linearGradient id="SVGID_11_" gradientUnits="userSpaceOnUse" x1="1950.3119" y1="1652.5844" x2="2043.4546" y2="1745.7271">
				<stop offset="0" style="stop-color:#2D404E"/>
				<stop offset="1" style="stop-color:#100C1A"/>
			</linearGradient><linearGradient id="XMLID_5_" gradientUnits="userSpaceOnUse" x1="1922.1489" y1="1594.5167" x2="1978.1785" y2="1650.5463">
					<stop offset="0" style="stop-color:#FFFFFF"/>
					<stop offset="1" style="stop-color:#95CDF5"/>
				</linearGradient><linearGradient id="XMLID_6_" gradientUnits="userSpaceOnUse" x1="2020.0508" y1="1598.9794" x2="2067.155" y2="1646.0836">
					<stop offset="0" style="stop-color:#FFFFFF"/>
					<stop offset="1" style="stop-color:#95CDF5"/>
				</linearGradient><linearGradient id="XMLID_7_" gradientUnits="userSpaceOnUse" x1="1937.9562" y1="1421.4237" x2="2055.8103" y2="1539.2777">
				<stop offset="0" style="stop-color:#FFDFB4"/>
				<stop offset="0.2129" style="stop-color:#FEDAB0"/>
				<stop offset="0.4519" style="stop-color:#FDCDA5"/>
				<stop offset="0.7034" style="stop-color:#FAB693"/>
				<stop offset="0.9622" style="stop-color:#F79779"/>
				<stop offset="1" style="stop-color:#F69275"/>
			</linearGradient><linearGradient id="XMLID_8_" gradientUnits="userSpaceOnUse" x1="2050.7439" y1="1486.7825" x2="2071.1685" y2="1507.2072">
					<stop offset="0" style="stop-color:#FFDFB4"/>
					<stop offset="0.2129" style="stop-color:#FEDAB0"/>
					<stop offset="0.4519" style="stop-color:#FDCDA5"/>
					<stop offset="0.7034" style="stop-color:#FAB693"/>
					<stop offset="0.9622" style="stop-color:#F79779"/>
					<stop offset="1" style="stop-color:#F69275"/>
				</linearGradient><linearGradient id="XMLID_9_" gradientUnits="userSpaceOnUse" x1="1918.8883" y1="1483.0729" x2="1946.7323" y2="1510.9169">
					<stop offset="0" style="stop-color:#FFDFB4"/>
					<stop offset="0.2129" style="stop-color:#FEDAB0"/>
					<stop offset="0.4519" style="stop-color:#FDCDA5"/>
					<stop offset="0.7034" style="stop-color:#FAB693"/>
					<stop offset="0.9622" style="stop-color:#F79779"/>
					<stop offset="1" style="stop-color:#F69275"/>
				</linearGradient><linearGradient id="SVGID_12_" gradientUnits="userSpaceOnUse" x1="1942.6887" y1="1392.0242" x2="2051.0779" y2="1500.4133">
				<stop offset="0" style="stop-color:#2D404E"/>
				<stop offset="1" style="stop-color:#100C1A"/>
			</linearGradient><linearGradient id="SVGID_17_" gradientUnits="userSpaceOnUse" x1="568.0331" y1="217.4906" x2="856.7179" y2="217.4906">
				<stop offset="0" style="stop-color:#FF0090"/>
				<stop offset="1" style="stop-color:#591700"/>
			</linearGradient><linearGradient id="SVGID_18_" gradientUnits="userSpaceOnUse" x1="749.5209" y1="217.4906" x2="1038.2056" y2="217.4906">
				<stop offset="0" style="stop-color:#FF0090"/>
				<stop offset="1" style="stop-color:#591700"/>
			</linearGradient><linearGradient id="SVGID_23_" gradientUnits="userSpaceOnUse" x1="1761.7943" y1="217.4906" x2="2050.479" y2="217.4906">
				<stop offset="0" style="stop-color:#FF0090"/>
				<stop offset="1" style="stop-color:#591700"/>
			</linearGradient><linearGradient id="SVGID_24_" gradientUnits="userSpaceOnUse" x1="1943.2821" y1="217.4906" x2="2231.9668" y2="217.4906">
				<stop offset="0" style="stop-color:#FF0090"/>
				<stop offset="1" style="stop-color:#591700"/>
			</linearGradient>

</svg>