<?xml version="1.0" encoding="utf-8"?>
<svg id="master-artboard" viewBox="0 0 74.19275665283203 94.8404769897461" version="1.1" xmlns="http://www.w3.org/2000/svg" x="0px" y="0px" width="74.19275665283203px" height="94.8404769897461px" enable-background="new 0 0 1400 1400"><rect id="ee-background" x="0" y="0" width="74.19275665283203" height="94.8404769897461" style="fill: white; fill-opacity: 0; pointer-events: none;"/>


<defs><style id="ee-google-fonts">@import url(https://fonts.googleapis.com/css?family=Asap:400,400italic,700,700italic|BenchNine:300,400,700);</style></defs><g transform="matrix(-0.25467485189437866, 0, 0, 0.25467485189437866, 308.395117906132, -144.61262976311116)"><g enable-background="new    " transform="matrix(-1, 0, 0, 1, 1436.2082733542961, -69.55935772596831)">
			<g>
				<path d="M 455.79998779296875 701.9000244140625 L 456.20001220703125 903.2000122070312 L 425.5 920.9000244140625 L 425.1000061035156 719.5999755859375 Z" fill="#3AE0C1"/>
			</g>
			<g>
				<path d="M 425.5 920.9000244140625 L 395.1000061035156 903.2000122070312 L 394.6000061035156 701.9000244140625 L 425.1000061035156 719.5999755859375 Z" fill="#2AC6A8"/>
			</g>
			<g>
				<path d="M 425.1000061035156 719.5999755859375 L 394.6000061035156 701.9000244140625 L 425.29998779296875 684.2000122070312 L 455.79998779296875 701.9000244140625 Z" fill="#56F4D5"/>
			</g>
		</g><g transform="matrix(-1, 0, 0, 1, 1436.2082733542961, -69.55935772596831)">
				<path d="M 407.3999938964844 752.5999755859375 L 407.70001220703125 931.2000122070312 L 377 948.9000244140625 L 376.70001220703125 770.2999877929688 Z" fill="#E94272" style="fill: rgb(92, 30, 92);"/>
			</g><path d="M 377 948.9000244140625 L 346.6000061035156 931.2000122070312 L 346.20001220703125 752.5999755859375 L 376.70001220703125 770.2999877929688 Z" fill="#DB2E68" style="fill: rgb(79, 26, 79);" transform="matrix(-1, 0, 0, 1, 1436.2082733542961, -69.55935772596831)"/><path d="M 376.70001220703125 770.2999877929688 L 346.20001220703125 752.5999755859375 L 376.8999938964844 734.9000244140625 L 407.3999938964844 752.5999755859375 Z" fill="#F4588C" style="fill: rgb(92, 30, 92);" transform="matrix(-1, 0, 0, 1, 1436.2082733542961, -69.55935772596831)"/><g transform="matrix(-1, 0, 0, 1, 1436.2082733542961, -69.55935772596831)">
				<path d="M 359 807.7999877929688 L 359.29998779296875 959.2000122070312 L 328.6000061035156 976.9000244140625 L 328.29998779296875 825.5 Z" fill="#FED250"/>
			</g><path d="M 328.6000061035156 976.9000244140625 L 298.1000061035156 959.2000122070312 L 297.8999938964844 807.7999877929688 L 328.29998779296875 825.5 Z" fill="#F4BD37" transform="matrix(-1, 0, 0, 1, 1436.2082733542961, -69.55935772596831)"/><path d="M 328.29998779296875 825.5 L 297.8999938964844 807.7999877929688 L 328.6000061035156 790.0999755859375 L 359 807.7999877929688 Z" fill="#FFD366" transform="matrix(-1, 0, 0, 1, 1436.2082733542961, -69.55935772596831)"/></g></svg>