<?xml version="1.0" encoding="utf-8"?>
<svg id="master-artboard" viewBox="0 0 66.40056610107422 74.94915771484375" version="1.1" xmlns="http://www.w3.org/2000/svg" x="0px" y="0px" width="66.40056610107422px" height="74.94915771484375px" enable-background="new 0 0 1400 1400"><defs><style id="ee-google-fonts">@import url(https://fonts.googleapis.com/css?family=Asap:400,400italic,700,700italic|BenchNine:300,400,700);</style></defs><rect id="ee-background" x="0" y="0" width="66.40056610107422" height="74.94915771484375" style="fill: white; fill-opacity: 0; pointer-events: none;"/>


<g transform="matrix(0.2575232684612274, -0.018144728615880013, -0.018144728615880013, -0.2575232684612274, 46.33139419555664, 126.7053165435791)"><g id="g-1" transform="matrix(1, 0, 0, 1, 69.802431860187, -65.32791630551785)">
	<g id="g-2" transform="matrix(1.3400969505310059, 0, 0, 1.3400969505310059, -407.2344226759493, -94.16460705243239)">
		<path class="st0" d="M 285.4976806640625 374.1211669921875 C 237.63455200195312 370.0384826660156 292.2662353515625 450.0382080078125 272.1114196777344 449.66082763671875 C 251.95660071817957 449.2834583846419 261.62420654296875 438.33966064453125 177.76170349121094 378.5498474121094 C 89.38742938125722 315.54333969049236 164.55663040110574 294.8235718297148 201.31275939941406 285.3209228515625 C 205.82832503753946 284.15349520205285 268.424732863287 275.8886034983418 268.2648620605469 279.1156005859375 C 326.42578125 287.1822509765625 333.3608093261719 378.2038269042969 285.4976806640625 374.1211669921875 Z" style="fill: rgb(27, 58, 75); fill-opacity: 0.56;"/>
	<path style="fill: rgb(27, 58, 75); fill-opacity: 0.56; stroke: rgb(0, 0, 0); stroke-opacity: 1; stroke-width: 0; paint-order: fill;"/><path d="M 262.2319641113281 296.5966796875" style="fill: rgb(27, 58, 75); fill-opacity: 0.56; stroke: rgb(0, 0, 0); stroke-opacity: 1; stroke-width: 0; paint-order: fill;"/></g>
</g></g><g transform="matrix(0.18159019947052002, 0, 0, 0.18159019947052002, -10.016357421875, 44.45810127258301)"><g transform="matrix(1, 0, 0, 1, 0, 0)"><g transform="matrix(1, 0, 0, 1, -534.166878076894, -669.7951149611933)">
		<path fill="#031E6C" d="M902.2,441.5c5.5-3.2,10-0.6,10,5.7l0.6,205.3c0,6.3-4.4,14.1-10,17.3L663.2,808.1c-5.5,3.2-10,0.6-10-5.7&#10;&#9;&#9;&#9;l-0.6-205.3c0-6.3,4.4-14.1,10-17.3L902.2,441.5z" style="fill: rgb(27, 58, 75);"/>
		<path fill="#FFFFFF" d="M907.3,447.2c0-1.4-0.3-2-0.4-2.1c0,0,0,0-0.2,0c-0.2,0-0.9,0.1-2,0.7L665.1,584.2&#10;&#9;&#9;&#9;c-4,2.3-7.5,8.3-7.5,12.9l0.1,25.8l249.7-144.1L907.3,447.2z"/>
		<g>
			<path fill="#FFFFFF" d="M887.9,569.9c1.4-0.8,2.6-0.2,2.6,1.5c0,1.7-1.2,3.7-2.6,4.5l-67,38.7c-1.4,0.8-2.6,0.2-2.6-1.5&#10;&#9;&#9;&#9;&#9;c0-1.7,1.2-3.7,2.6-4.5L887.9,569.9z"/>
		</g>
		<g>
			<path fill="#FFFFFF" d="M887.8,543.4c1.4-0.8,2.6-0.2,2.6,1.5s-1.2,3.7-2.6,4.5l-67,38.7c-1.4,0.8-2.6,0.2-2.6-1.5&#10;&#9;&#9;&#9;&#9;s1.2-3.7,2.6-4.5L887.8,543.4z"/>
		</g>
		<g>
			<path fill="#FFFFFF" d="M810.4,614.7c1.4-0.8,2.6-0.2,2.6,1.5c0,1.7-1.2,3.7-2.6,4.5l-32.3,18.6c-1.4,0.8-2.6,0.2-2.6-1.5&#10;&#9;&#9;&#9;&#9;c0-1.7,1.2-3.7,2.6-4.5L810.4,614.7z"/>
		</g>
		<g>
			<path fill="#F965A8" d="M835.8,586.1c1.4-0.8,2.6-0.2,2.6,1.5s-1.2,3.7-2.6,4.5l-57.7,33.3c-1.4,0.8-2.6,0.2-2.6-1.5&#10;&#9;&#9;&#9;&#9;s1.2-3.7,2.6-4.5L835.8,586.1z"/>
		</g>
		<g>
			<path fill="#FFFFFF" d="M767.8,639.3c1.4-0.8,2.6-0.2,2.6,1.5c0,1.7-1.2,3.7-2.6,4.5l-13.8,7.9c-1.4,0.8-2.6,0.2-2.6-1.5&#10;&#9;&#9;&#9;&#9;c0-1.7,1.2-3.7,2.6-4.5L767.8,639.3z"/>
		</g>
		<g>
			<path fill="#92D7FE" d="M888.5,647.7c1.4-0.8,2.6-0.2,2.6,1.5c0,1.7-1.2,3.7-2.6,4.5L683.3,772.2c-1.4,0.8-2.6,0.2-2.6-1.5&#10;&#9;&#9;&#9;&#9;c0-1.7,1.2-3.7,2.6-4.5L888.5,647.7z" style="fill: rgb(0, 133, 135);"/>
		</g>
		<g>
			<path fill="#FED22C" d="M835.7,559.6c1.4-0.8,2.6-0.2,2.6,1.5c0,1.7-1.2,3.7-2.6,4.5L778,598.9c-1.4,0.8-2.6,0.2-2.6-1.5&#10;&#9;&#9;&#9;&#9;c0-1.7,1.2-3.7,2.6-4.5L835.7,559.6z"/>
		</g>
		
		
		<g>
			<path fill="#3AE0C0" d="M767.9,651.8c1.4-0.8,2.6-0.2,2.6,1.5c0,1.7-1.2,3.7-2.6,4.5l-51.7,29.9c-1.4,0.8-2.6,0.2-2.6-1.5&#10;&#9;&#9;&#9;&#9;c0-1.7,1.2-3.7,2.6-4.5L767.9,651.8z"/>
		</g>
		
		
		<g>
			<path fill="#FED22C" d="M767.9,625.3c1.4-0.8,2.6-0.2,2.6,1.5c0,1.7-1.2,3.7-2.6,4.5l-51.7,29.9c-1.4,0.8-2.6,0.2-2.6-1.5&#10;&#9;&#9;&#9;&#9;s1.2-3.7,2.6-4.5L767.9,625.3z"/>
		</g>
		<g>
			<path fill="#3AE0C0" d="M706.7,687.2c1.4-0.8,2.6-0.2,2.6,1.5c0,1.7-1.2,3.7-2.6,4.5l-23.6,13.6c-1.4,0.8-2.6,0.2-2.6-1.5&#10;&#9;&#9;&#9;&#9;c0-1.7,1.2-3.7,2.6-4.5L706.7,687.2z"/>
		</g>
		<g>
			<path fill="#FFFFFF" d="M744.7,652.6c1.4-0.8,2.6-0.2,2.6,1.5c0,1.7-1.2,3.7-2.6,4.5l-61.6,35.6c-1.4,0.8-2.6,0.2-2.6-1.5&#10;&#9;&#9;&#9;&#9;c0-1.7,1.2-3.7,2.6-4.5L744.7,652.6z"/>
		</g>
		<g>
			<path fill="#FED22C" d="M767.8,598.8c1.4-0.8,2.6-0.2,2.6,1.5c0,1.7-1.2,3.7-2.6,4.5l-51.7,29.9c-1.4,0.8-2.6,0.2-2.6-1.5&#10;&#9;&#9;&#9;&#9;c0-1.7,1.2-3.7,2.6-4.5L767.8,598.8z"/>
		</g>
		<g>
			<path fill="#FED22C" d="M706.6,660.7c1.4-0.8,2.6-0.2,2.6,1.5c0,1.7-1.2,3.7-2.6,4.5L683,680.3c-1.4,0.8-2.6,0.2-2.6-1.5&#10;&#9;&#9;&#9;&#9;s1.2-3.7,2.6-4.5L706.6,660.7z"/>
		</g>
		<g>
			<path fill="#3AE0C0" d="M744.6,626.1c1.4-0.8,2.6-0.2,2.6,1.5c0,1.7-1.2,3.7-2.6,4.5L683,667.7c-1.4,0.8-2.6,0.2-2.6-1.5&#10;&#9;&#9;&#9;&#9;c0-1.7,1.2-3.7,2.6-4.5L744.6,626.1z"/>
		</g>
		<g>
			<path fill="#F965A8" d="M744.5,599.6c1.4-0.8,2.6-0.2,2.6,1.5c0,1.7-1.2,3.7-2.6,4.5l-61.6,35.6c-1.4,0.8-2.6,0.2-2.6-1.5&#10;&#9;&#9;&#9;&#9;c0-1.7,1.2-3.7,2.6-4.5L744.5,599.6z"/>
		</g>
		<g>
			<path fill="#FFFFFF" d="M810.3,588.2c1.4-0.8,2.6-0.2,2.6,1.5c0,1.7-1.2,3.7-2.6,4.5l-32.3,18.6c-1.4,0.8-2.6,0.2-2.6-1.5&#10;&#9;&#9;&#9;&#9;c0-1.7,1.2-3.7,2.6-4.5L810.3,588.2z"/>
		</g>
		<g>
			<path fill="#FFFFFF" d="M810.2,561.6c1.4-0.8,2.6-0.2,2.6,1.5c0,1.7-1.2,3.7-2.6,4.5L778,586.3c-1.4,0.8-2.6,0.2-2.6-1.5&#10;&#9;&#9;&#9;&#9;c0-1.7,1.2-3.7,2.6-4.5L810.2,561.6z"/>
		</g>
		<g>
			<path fill="#F965A8" d="M888.4,555.7c1.2-0.7,2.1-0.1,2.1,1.2l0,1.2c0,1.3-0.9,3-2.1,3.6l-42.2,24.4c-1.2,0.7-2.1,0.1-2.1-1.2&#10;&#9;&#9;&#9;&#9;l0-1.2c0-1.3,0.9-3,2.1-3.6L888.4,555.7z"/>
		</g>
		<g>
			<path fill="#F965A8" d="M767.6,586.2c1.4-0.8,2.6-0.2,2.6,1.5c0,1.7-1.2,3.7-2.6,4.5l-13.8,7.9c-1.4,0.8-2.6,0.2-2.6-1.5&#10;&#9;&#9;&#9;&#9;c0-1.7,1.2-3.7,2.6-4.5L767.6,586.2z"/>
		</g>
	<g>
			<path fill="#92D7FE" d="M888.4,596.6c1.4-0.8,2.6-0.2,2.6,1.5s-1.2,3.7-2.6,4.5L683.1,721.1c-1.4,0.8-2.6,0.2-2.6-1.5&#10;&#9;&#9;&#9;&#9;s1.2-3.7,2.6-4.5L888.4,596.6z" style="fill: rgb(0, 133, 135);"/>
		</g><g>
			<path fill="#92D7FE" d="M888.4,609.4c1.4-0.8,2.6-0.2,2.6,1.5c0,1.7-1.2,3.7-2.6,4.5L683.2,733.9c-1.4,0.8-2.6,0.2-2.6-1.5&#10;&#9;&#9;&#9;&#9;c0-1.7,1.2-3.7,2.6-4.5L888.4,609.4z" style="fill: rgb(0, 133, 135);"/>
		</g><g>
			<path fill="#92D7FE" d="M888.5,622.1c1.4-0.8,2.6-0.2,2.6,1.5c0,1.7-1.2,3.7-2.6,4.5L683.2,746.7c-1.4,0.8-2.6,0.2-2.6-1.5&#10;&#9;&#9;&#9;&#9;c0-1.7,1.2-3.7,2.6-4.5L888.5,622.1z" style="fill: rgb(0, 133, 135);"/>
		</g><g>
			<path fill="#92D7FE" d="M888.5,634.9c1.4-0.8,2.6-0.2,2.6,1.5c0,1.7-1.2,3.7-2.6,4.5L683.3,759.4c-1.4,0.8-2.6,0.2-2.6-1.5&#10;&#9;&#9;&#9;&#9;c0-1.7,1.2-3.7,2.6-4.5L888.5,634.9z" style="fill: rgb(0, 133, 135);"/>
		</g></g><g transform="matrix(1, 0, 0, 1, -536.2534259595486, -669.7951149611933)">
		<g>
			<path fill="#031E6C" d="M675.4,590.2c2.4-1.4,4.4-0.3,4.4,2.5s-1.9,6.2-4.4,7.6s-4.4,0.3-4.4-2.5S673,591.6,675.4,590.2z" style="fill: rgb(0, 133, 135);"/>
		</g>
		<g>
			<path fill="#031E6C" d="M690.3,581.6c2.4-1.4,4.4-0.3,4.4,2.5c0,2.8-1.9,6.2-4.4,7.6c-2.4,1.4-4.4,0.3-4.4-2.5&#10;&#9;&#9;&#9;&#9;C686,586.4,687.9,583,690.3,581.6z" style="fill: rgb(0, 133, 135);"/>
		</g>
		<g>
			<path fill="#031E6C" d="M705.3,573c2.4-1.4,4.4-0.3,4.4,2.5c0,2.8-2,6.2-4.4,7.6s-4.4,0.3-4.4-2.5S702.9,574.4,705.3,573z" style="fill: rgb(0, 133, 135);"/>
		</g>
	</g></g></g><g transform="matrix(0.09283068776130676, 0, 0, 0.09283068776130676, 37.64761734008789, 3.2230472564697266)"><g transform="matrix(1.1369516849517822, 0, 0, 1.1369516849517822, -438.95453534952594, -309.726017798871)">
		<g enable-background="new    ">
			<path fill="#F2449C" d="M517.6,286.1c-10.5-6.1-25-5.2-41,4c-31.8,18.4-57.5,62.8-57.4,99.4c0.1,18.1,6.5,30.9,16.8,36.9&#10;&#9;&#9;&#9;&#9;l26.4,15.3c-10.3-6-16.7-18.8-16.8-36.9c-0.1-36.5,25.6-81,57.4-99.4c16-9.2,30.5-10.1,41-4L517.6,286.1z" style="fill: rgb(92, 30, 92);"/>
			<g>
				<path fill="#F965A8" d="M503,305.4c31.8-18.4,57.6-3.6,57.7,32.9c0.1,36.5-25.6,81-57.4,99.4s-57.6,3.6-57.7-32.9&#10;&#9;&#9;&#9;&#9;&#9;S471.2,323.8,503,305.4z" style="fill: rgb(92, 30, 92);"/>
			</g>
		<path d="M 163.4654541015625 889.1732177734375" style="fill: rgb(92, 30, 92); fill-opacity: 1; stroke: rgb(0, 0, 0); stroke-opacity: 1; stroke-width: 0; paint-order: fill;"/></g>
		
	</g><path d="M 106.9231948852539 109.40690612792969 L 106.9231948852539 108.9468994140625 C 106.9231948852539 108.48023223876953 107.14652252197266 108.14356994628906 107.59319305419922 107.93690490722656 L 117.65319061279297 103.64690399169922 C 117.79985809326172 103.59356689453125 117.91986083984375 103.56690216064453 118.01319122314453 103.56690216064453 C 118.25318908691406 103.56690216064453 118.3731918334961 103.89690399169922 118.3731918334961 104.55690002441406 L 118.3731918334961 104.93690490722656 C 118.3731918334961 105.72357177734375 118.13319396972656 106.21356964111328 117.65319061279297 106.40690612792969 L 110.6431884765625 109.18690490722656 L 117.67318725585938 111.96690368652344 C 118.15319061279297 112.16023254394531 118.3931884765625 112.65023803710938 118.3931884765625 113.43690490722656 L 118.3931884765625 113.81690216064453 C 118.3931884765625 114.490234375 118.273193359375 114.826904296875 118.03318786621094 114.826904296875 C 117.92652130126953 114.826904296875 117.80652618408203 114.79357147216797 117.67318725585938 114.7269058227539 L 107.59319305419922 110.40690612792969 C 107.14652252197266 110.23356628417969 106.9231948852539 109.90023803710938 106.9231948852539 109.40690612792969 ZM 133.0264892578125 98.21690368652344 L 133.60647583007812 98.21690368652344 C 134.27981567382812 98.21690368652344 134.61648559570312 98.3469009399414 134.61648559570312 98.60690307617188 C 134.61648559570312 98.68690490722656 134.59315490722656 98.79690551757812 134.54647827148438 98.93690490722656 L 127.55648040771484 116.24690246582031 C 127.36315155029297 116.7269058227539 126.87648010253906 116.96690368652344 126.09648132324219 116.96690368652344 L 125.5164794921875 116.96690368652344 C 124.82981872558594 116.96690368652344 124.48648071289062 116.83689880371094 124.48648071289062 116.576904296875 C 124.48648071289062 116.54357147216797 124.51981353759766 116.4335708618164 124.58647918701172 116.24690246582031 L 131.5664825439453 98.93690490722656 C 131.7598114013672 98.45690155029297 132.24647521972656 98.21690368652344 133.0264892578125 98.21690368652344 ZM 141.11134338378906 114.826904296875 C 140.871337890625 114.826904296875 140.7513427734375 114.490234375 140.7513427734375 113.81690216064453 L 140.7513427734375 113.43690490722656 C 140.7513427734375 112.65023803710938 140.9913330078125 112.16023254394531 141.47134399414062 111.96690368652344 L 148.5013427734375 109.18690490722656 L 141.5013427734375 106.40690612792969 C 141.02133178710938 106.21356964111328 140.78134155273438 105.72357177734375 140.78134155273438 104.93690490722656 L 140.78134155273438 104.55690002441406 C 140.78134155273438 103.89690399169922 140.90133666992188 103.56690216064453 141.14134216308594 103.56690216064453 C 141.2346649169922 103.56690216064453 141.35467529296875 103.59356689453125 141.5013427734375 103.64690399169922 L 151.5513458251953 107.93690490722656 C 151.9980010986328 108.14356994628906 152.22134399414062 108.48023223876953 152.22134399414062 108.9468994140625 L 152.22134399414062 109.40690612792969 C 152.22134399414062 109.90023803710938 151.9980010986328 110.23356628417969 151.5513458251953 110.40690612792969 L 141.47134399414062 114.7269058227539 C 141.34466552734375 114.79357147216797 141.22467041015625 114.826904296875 141.11134338378906 114.826904296875 Z" transform="matrix(2.138195514678955, -0.6019394993782043, 0.6019394993782043, 2.138195514678955, -205.79869079589844, -39.481746673583984)" style="fill: rgb(255, 255, 255); white-space: pre; color: rgb(51, 51, 51);"/></g></svg>